solid microbit mount
   facet normal -6.381693e-05 -1.000000e+00 8.797601e-06
      outer loop
         vertex 5.262824e+01 2.577811e+01 1.007386e+02
         vertex 5.246249e+01 2.577812e+01 1.003831e+02
         vertex 9.051393e+01 2.577566e+01 9.650811e+01
      endloop
   endfacet
   facet normal -6.347812e-05 -1.000000e+00 1.209209e-05
      outer loop
         vertex 7.272975e+01 2.577684e+01 1.011174e+02
         vertex 7.262824e+01 2.577684e+01 1.007386e+02
         vertex 9.051393e+01 2.577566e+01 9.650811e+01
      endloop
   endfacet
   facet normal -6.309728e-05 -1.000000e+00 1.370219e-05
      outer loop
         vertex 7.262824e+01 2.577684e+01 1.007386e+02
         vertex 7.246249e+01 2.577685e+01 1.003831e+02
         vertex 9.051393e+01 2.577566e+01 9.650811e+01
      endloop
   endfacet
   facet normal -6.390108e-05 -1.000000e+00 9.957737e-06
      outer loop
         vertex 7.246249e+01 2.577685e+01 1.003831e+02
         vertex 7.223753e+01 2.577686e+01 1.000618e+02
         vertex 9.051393e+01 2.577566e+01 9.650811e+01
      endloop
   endfacet
   facet normal -6.386653e-05 -1.000000e+00 1.013544e-05
      outer loop
         vertex 7.223753e+01 2.577686e+01 1.000618e+02
         vertex 7.196020e+01 2.577687e+01 9.978451e+01
         vertex 9.051393e+01 2.577566e+01 9.650811e+01
      endloop
   endfacet
   facet normal -6.294207e-05 -1.000000e+00 1.537051e-05
      outer loop
         vertex 7.196020e+01 2.577687e+01 9.978451e+01
         vertex 7.163893e+01 2.577689e+01 9.955956e+01
         vertex 9.051393e+01 2.577566e+01 9.650811e+01
      endloop
   endfacet
   facet normal -6.342276e-05 -1.000000e+00 1.239717e-05
      outer loop
         vertex 7.163893e+01 2.577689e+01 9.955956e+01
         vertex 7.128347e+01 2.577691e+01 9.939380e+01
         vertex 9.051393e+01 2.577566e+01 9.650811e+01
      endloop
   endfacet
   facet normal -6.316113e-05 -1.000000e+00 1.523734e-05
      outer loop
         vertex 5.246249e+01 2.577812e+01 1.003831e+02
         vertex 5.223753e+01 2.577813e+01 1.000618e+02
         vertex 9.051393e+01 2.577566e+01 9.650811e+01
      endloop
   endfacet
   facet normal -6.365452e-05 -1.000000e+00 9.923214e-06
      outer loop
         vertex 5.223753e+01 2.577813e+01 1.000618e+02
         vertex 5.196020e+01 2.577814e+01 9.978451e+01
         vertex 9.051393e+01 2.577566e+01 9.650811e+01
      endloop
   endfacet
   facet normal -6.316456e-05 -1.000000e+00 1.568853e-05
      outer loop
         vertex 5.196020e+01 2.577814e+01 9.978451e+01
         vertex 5.163893e+01 2.577816e+01 9.955956e+01
         vertex 9.051393e+01 2.577566e+01 9.650811e+01
      endloop
   endfacet
   facet normal -6.337180e-05 -1.000000e+00 1.241763e-05
      outer loop
         vertex 9.051393e+01 2.577584e+01 1.115081e+02
         vertex 7.272975e+01 2.577685e+01 1.018988e+02
         vertex 9.051393e+01 2.577566e+01 9.650811e+01
      endloop
   endfacet
   facet normal -6.451139e-05 -1.000000e+00 8.658081e-06
      outer loop
         vertex 7.272975e+01 2.577685e+01 1.018988e+02
         vertex 7.276393e+01 2.577684e+01 1.015081e+02
         vertex 9.051393e+01 2.577566e+01 9.650811e+01
      endloop
   endfacet
   facet normal -6.271878e-05 -1.000000e+00 1.502185e-05
      outer loop
         vertex 7.276393e+01 2.577684e+01 1.015081e+02
         vertex 7.272975e+01 2.577684e+01 1.011174e+02
         vertex 9.051393e+01 2.577566e+01 9.650811e+01
      endloop
   endfacet
   facet normal -6.302789e-05 -1.000000e+00 1.502861e-05
      outer loop
         vertex 7.128347e+01 2.577691e+01 9.939380e+01
         vertex 7.090464e+01 2.577693e+01 9.929230e+01
         vertex 9.051393e+01 2.577566e+01 9.650811e+01
      endloop
   endfacet
   facet normal -6.319032e-05 -1.000000e+00 1.388455e-05
      outer loop
         vertex 7.090464e+01 2.577693e+01 9.929230e+01
         vertex 7.051393e+01 2.577696e+01 9.925811e+01
         vertex 9.051393e+01 2.577566e+01 9.650811e+01
      endloop
   endfacet
   facet normal -6.961798e-05 -1.000000e+00 -3.286206e-05
      outer loop
         vertex 7.051393e+01 2.577696e+01 9.925811e+01
         vertex 7.012322e+01 2.577698e+01 9.929230e+01
         vertex 9.051393e+01 2.577566e+01 9.650811e+01
      endloop
   endfacet
   facet normal -6.342292e-05 -1.000000e+00 1.239715e-05
      outer loop
         vertex 5.163893e+01 2.577816e+01 9.955956e+01
         vertex 5.128347e+01 2.577818e+01 9.939380e+01
         vertex 9.051393e+01 2.577566e+01 9.650811e+01
      endloop
   endfacet
   facet normal -6.318596e-05 -1.000000e+00 1.561854e-05
      outer loop
         vertex 5.128347e+01 2.577818e+01 9.939380e+01
         vertex 5.090464e+01 2.577820e+01 9.929230e+01
         vertex 9.051393e+01 2.577566e+01 9.650811e+01
      endloop
   endfacet
   facet normal -6.342307e-05 -1.000000e+00 1.224530e-05
      outer loop
         vertex 5.090464e+01 2.577820e+01 9.929230e+01
         vertex 3.051393e+01 2.577946e+01 9.650811e+01
         vertex 9.051393e+01 2.577566e+01 9.650811e+01
      endloop
   endfacet
   facet normal -6.291681e-05 -1.000000e+00 1.685859e-05
      outer loop
         vertex 5.272975e+01 2.577811e+01 1.011174e+02
         vertex 5.262824e+01 2.577811e+01 1.007386e+02
         vertex 9.051393e+01 2.577566e+01 9.650811e+01
      endloop
   endfacet
   facet normal -6.365260e-05 -1.000000e+00 1.082703e-05
      outer loop
         vertex 7.012322e+01 2.577698e+01 9.929230e+01
         vertex 5.272975e+01 2.577811e+01 1.011174e+02
         vertex 9.051393e+01 2.577566e+01 9.650811e+01
      endloop
   endfacet
   facet normal 1.000000e+00 -6.395085e-05 7.941182e-10
      outer loop
         vertex 9.051412e+01 2.877565e+01 9.650808e+01
         vertex 9.051393e+01 2.577584e+01 1.115081e+02
         vertex 9.051393e+01 2.577566e+01 9.650811e+01
      endloop
   endfacet
   facet normal -7.941181e-10 -1.241764e-05 -1.000000e+00
      outer loop
         vertex 8.751412e+01 2.877585e+01 9.650808e+01
         vertex 9.051412e+01 2.877565e+01 9.650808e+01
         vertex 9.051393e+01 2.577566e+01 9.650811e+01
      endloop
   endfacet
   facet normal -7.876929e-10 -1.241763e-05 -1.000000e+00
      outer loop
         vertex 3.351412e+01 2.877927e+01 9.650808e+01
         vertex 8.751412e+01 2.877585e+01 9.650808e+01
         vertex 9.051393e+01 2.577566e+01 9.650811e+01
      endloop
   endfacet
   facet normal -7.875643e-10 -1.241763e-05 -1.000000e+00
      outer loop
         vertex 3.051393e+01 2.577946e+01 9.650811e+01
         vertex 3.351412e+01 2.877927e+01 9.650808e+01
         vertex 9.051393e+01 2.577566e+01 9.650811e+01
      endloop
   endfacet
   facet normal -6.491945e-05 -1.000000e+00 1.567729e-05
      outer loop
         vertex 7.196020e+01 2.577692e+01 1.032317e+02
         vertex 7.223753e+01 2.577689e+01 1.029544e+02
         vertex 9.051393e+01 2.577584e+01 1.115081e+02
      endloop
   endfacet
   facet normal -6.176283e-05 -1.000000e+00 8.932658e-06
      outer loop
         vertex 7.223753e+01 2.577689e+01 1.029544e+02
         vertex 7.246249e+01 2.577688e+01 1.026331e+02
         vertex 9.051393e+01 2.577584e+01 1.115081e+02
      endloop
   endfacet
   facet normal -6.553379e-05 -1.000000e+00 1.660267e-05
      outer loop
         vertex 7.246249e+01 2.577688e+01 1.026331e+02
         vertex 7.262824e+01 2.577686e+01 1.022777e+02
         vertex 9.051393e+01 2.577584e+01 1.115081e+02
      endloop
   endfacet
   facet normal -6.342018e-05 -1.000000e+00 1.250717e-05
      outer loop
         vertex 7.262824e+01 2.577686e+01 1.022777e+02
         vertex 7.272975e+01 2.577685e+01 1.018988e+02
         vertex 9.051393e+01 2.577584e+01 1.115081e+02
      endloop
   endfacet
   facet normal -6.345411e-05 -1.000000e+00 1.259684e-05
      outer loop
         vertex 3.051393e+01 2.577965e+01 1.115081e+02
         vertex 7.012322e+01 2.577704e+01 1.037239e+02
         vertex 9.051393e+01 2.577584e+01 1.115081e+02
      endloop
   endfacet
   facet normal -6.296578e-05 -1.000000e+00 1.131764e-05
      outer loop
         vertex 7.012322e+01 2.577704e+01 1.037239e+02
         vertex 7.051393e+01 2.577701e+01 1.037581e+02
         vertex 9.051393e+01 2.577584e+01 1.115081e+02
      endloop
   endfacet
   facet normal -6.135018e-05 -1.000000e+00 7.148354e-06
      outer loop
         vertex 7.051393e+01 2.577701e+01 1.037581e+02
         vertex 7.090464e+01 2.577699e+01 1.037239e+02
         vertex 9.051393e+01 2.577584e+01 1.115081e+02
      endloop
   endfacet
   facet normal -6.467491e-05 -1.000000e+00 1.552374e-05
      outer loop
         vertex 7.090464e+01 2.577699e+01 1.037239e+02
         vertex 7.128347e+01 2.577696e+01 1.036224e+02
         vertex 9.051393e+01 2.577584e+01 1.115081e+02
      endloop
   endfacet
   facet normal -6.290080e-05 -1.000000e+00 1.119731e-05
      outer loop
         vertex 7.128347e+01 2.577696e+01 1.036224e+02
         vertex 7.163893e+01 2.577694e+01 1.034567e+02
         vertex 9.051393e+01 2.577584e+01 1.115081e+02
      endloop
   endfacet
   facet normal -6.245841e-05 -1.000000e+00 1.016022e-05
      outer loop
         vertex 7.163893e+01 2.577694e+01 1.034567e+02
         vertex 7.196020e+01 2.577692e+01 1.032317e+02
         vertex 9.051393e+01 2.577584e+01 1.115081e+02
      endloop
   endfacet
   facet normal 7.913759e-10 1.247162e-05 1.000000e+00
      outer loop
         vertex 9.051539e+01 4.877584e+01 1.115078e+02
         vertex 3.051539e+01 4.877965e+01 1.115078e+02
         vertex 9.051393e+01 2.577584e+01 1.115081e+02
      endloop
   endfacet
   facet normal 7.913759e-10 1.247162e-05 1.000000e+00
      outer loop
         vertex 3.051539e+01 4.877965e+01 1.115078e+02
         vertex 3.051393e+01 2.577965e+01 1.115081e+02
         vertex 9.051393e+01 2.577584e+01 1.115081e+02
      endloop
   endfacet
   facet normal 1.000000e+00 -6.351098e-05 8.876174e-08
      outer loop
         vertex 9.051412e+01 2.877565e+01 9.650808e+01
         vertex 9.051517e+01 4.538924e+01 1.065079e+02
         vertex 9.051393e+01 2.577584e+01 1.115081e+02
      endloop
   endfacet
   facet normal 1.000000e+00 -6.349191e-05 1.635718e-07
      outer loop
         vertex 9.051517e+01 4.538924e+01 1.065079e+02
         vertex 9.051539e+01 4.877584e+01 1.115078e+02
         vertex 9.051393e+01 2.577584e+01 1.115081e+02
      endloop
   endfacet
   facet normal -9.659261e-01 6.468580e-05 2.588179e-01
      outer loop
         vertex 7.272994e+01 2.877684e+01 1.011174e+02
         vertex 7.262824e+01 2.577684e+01 1.007386e+02
         vertex 7.272975e+01 2.577684e+01 1.011174e+02
      endloop
   endfacet
   facet normal -9.961947e-01 6.448046e-05 8.715517e-02
      outer loop
         vertex 7.276412e+01 2.877684e+01 1.015081e+02
         vertex 7.272994e+01 2.877684e+01 1.011174e+02
         vertex 7.272975e+01 2.577684e+01 1.011174e+02
      endloop
   endfacet
   facet normal -9.961947e-01 6.448050e-05 8.715517e-02
      outer loop
         vertex 7.276393e+01 2.577684e+01 1.015081e+02
         vertex 7.276412e+01 2.877684e+01 1.015081e+02
         vertex 7.272975e+01 2.577684e+01 1.011174e+02
      endloop
   endfacet
   facet normal -9.063080e-01 6.264433e-05 4.226178e-01
      outer loop
         vertex 7.262843e+01 2.877684e+01 1.007385e+02
         vertex 7.246249e+01 2.577685e+01 1.003831e+02
         vertex 7.262824e+01 2.577684e+01 1.007386e+02
      endloop
   endfacet
   facet normal -9.659255e-01 6.438592e-05 2.588202e-01
      outer loop
         vertex 7.272994e+01 2.877684e+01 1.011174e+02
         vertex 7.262843e+01 2.877684e+01 1.007385e+02
         vertex 7.262824e+01 2.577684e+01 1.007386e+02
      endloop
   endfacet
   facet normal -9.961947e-01 6.231598e-05 -8.715517e-02
      outer loop
         vertex 7.272994e+01 2.877685e+01 1.018988e+02
         vertex 7.276412e+01 2.877684e+01 1.015081e+02
         vertex 7.276393e+01 2.577684e+01 1.015081e+02
      endloop
   endfacet
   facet normal -9.961947e-01 6.231594e-05 -8.715517e-02
      outer loop
         vertex 7.272975e+01 2.577685e+01 1.018988e+02
         vertex 7.272994e+01 2.877685e+01 1.018988e+02
         vertex 7.276393e+01 2.577684e+01 1.015081e+02
      endloop
   endfacet
   facet normal -8.191517e-01 5.899928e-05 5.735769e-01
      outer loop
         vertex 7.246268e+01 2.877685e+01 1.003831e+02
         vertex 7.223753e+01 2.577686e+01 1.000618e+02
         vertex 7.246249e+01 2.577685e+01 1.003831e+02
      endloop
   endfacet
   facet normal -9.063080e-01 6.264433e-05 4.226178e-01
      outer loop
         vertex 7.262843e+01 2.877684e+01 1.007385e+02
         vertex 7.246268e+01 2.877685e+01 1.003831e+02
         vertex 7.246249e+01 2.577685e+01 1.003831e+02
      endloop
   endfacet
   facet normal -9.659255e-01 5.825792e-05 -2.588202e-01
      outer loop
         vertex 7.262843e+01 2.877686e+01 1.022776e+02
         vertex 7.272994e+01 2.877685e+01 1.018988e+02
         vertex 7.272975e+01 2.577685e+01 1.018988e+02
      endloop
   endfacet
   facet normal -9.659261e-01 5.795812e-05 -2.588179e-01
      outer loop
         vertex 7.262824e+01 2.577686e+01 1.022777e+02
         vertex 7.262843e+01 2.877686e+01 1.022776e+02
         vertex 7.272975e+01 2.577685e+01 1.018988e+02
      endloop
   endfacet
   facet normal -7.071056e-01 5.356155e-05 7.071080e-01
      outer loop
         vertex 7.223772e+01 2.877686e+01 1.000618e+02
         vertex 7.196020e+01 2.577687e+01 9.978451e+01
         vertex 7.223753e+01 2.577686e+01 1.000618e+02
      endloop
   endfacet
   facet normal -8.191517e-01 5.899928e-05 5.735769e-01
      outer loop
         vertex 7.246268e+01 2.877685e+01 1.003831e+02
         vertex 7.223772e+01 2.877686e+01 1.000618e+02
         vertex 7.223753e+01 2.577686e+01 1.000618e+02
      endloop
   endfacet
   facet normal -9.063076e-01 5.214847e-05 -4.226187e-01
      outer loop
         vertex 7.246268e+01 2.877688e+01 1.026331e+02
         vertex 7.262843e+01 2.877686e+01 1.022776e+02
         vertex 7.262824e+01 2.577686e+01 1.022777e+02
      endloop
   endfacet
   facet normal -9.063080e-01 5.201734e-05 -4.226178e-01
      outer loop
         vertex 7.246249e+01 2.577688e+01 1.026331e+02
         vertex 7.246268e+01 2.877688e+01 1.026331e+02
         vertex 7.262824e+01 2.577686e+01 1.022777e+02
      endloop
   endfacet
   facet normal -5.735769e-01 4.692890e-05 8.191517e-01
      outer loop
         vertex 7.196039e+01 2.877687e+01 9.978447e+01
         vertex 7.163893e+01 2.577689e+01 9.955956e+01
         vertex 7.196020e+01 2.577687e+01 9.978451e+01
      endloop
   endfacet
   facet normal -7.071080e-01 5.400073e-05 7.071056e-01
      outer loop
         vertex 7.223772e+01 2.877686e+01 1.000618e+02
         vertex 7.196039e+01 2.877687e+01 9.978447e+01
         vertex 7.196020e+01 2.577687e+01 9.978451e+01
      endloop
   endfacet
   facet normal -8.191525e-01 4.457638e-05 -5.735758e-01
      outer loop
         vertex 7.223772e+01 2.877690e+01 1.029543e+02
         vertex 7.246268e+01 2.877688e+01 1.026331e+02
         vertex 7.246249e+01 2.577688e+01 1.026331e+02
      endloop
   endfacet
   facet normal -8.191517e-01 4.475435e-05 -5.735769e-01
      outer loop
         vertex 7.223753e+01 2.577689e+01 1.029544e+02
         vertex 7.223772e+01 2.877690e+01 1.029543e+02
         vertex 7.246249e+01 2.577688e+01 1.026331e+02
      endloop
   endfacet
   facet normal -4.226178e-01 3.829991e-05 9.063080e-01
      outer loop
         vertex 7.163912e+01 2.877689e+01 9.955952e+01
         vertex 7.128347e+01 2.577691e+01 9.939380e+01
         vertex 7.163893e+01 2.577689e+01 9.955956e+01
      endloop
   endfacet
   facet normal -5.735758e-01 4.675075e-05 8.191525e-01
      outer loop
         vertex 7.196039e+01 2.877687e+01 9.978447e+01
         vertex 7.163912e+01 2.877689e+01 9.955952e+01
         vertex 7.163893e+01 2.577689e+01 9.955956e+01
      endloop
   endfacet
   facet normal -7.071068e-01 3.600043e-05 -7.071068e-01
      outer loop
         vertex 7.196039e+01 2.877692e+01 1.032317e+02
         vertex 7.223772e+01 2.877690e+01 1.029543e+02
         vertex 7.223753e+01 2.577689e+01 1.029544e+02
      endloop
   endfacet
   facet normal -7.071056e-01 3.621987e-05 -7.071080e-01
      outer loop
         vertex 7.196020e+01 2.577692e+01 1.032317e+02
         vertex 7.196039e+01 2.877692e+01 1.032317e+02
         vertex 7.223753e+01 2.577689e+01 1.029544e+02
      endloop
   endfacet
   facet normal -2.588202e-01 2.876578e-05 9.659255e-01
      outer loop
         vertex 7.128366e+01 2.877691e+01 9.939377e+01
         vertex 7.090464e+01 2.577693e+01 9.929230e+01
         vertex 7.128347e+01 2.577691e+01 9.939380e+01
      endloop
   endfacet
   facet normal -4.226187e-01 3.843116e-05 9.063076e-01
      outer loop
         vertex 7.163912e+01 2.877689e+01 9.955952e+01
         vertex 7.128366e+01 2.877691e+01 9.939377e+01
         vertex 7.128347e+01 2.577691e+01 9.939380e+01
      endloop
   endfacet
   facet normal -5.735758e-01 2.633066e-05 -8.191525e-01
      outer loop
         vertex 7.163912e+01 2.877694e+01 1.034566e+02
         vertex 7.196039e+01 2.877692e+01 1.032317e+02
         vertex 7.196020e+01 2.577692e+01 1.032317e+02
      endloop
   endfacet
   facet normal -5.735769e-01 2.615266e-05 -8.191517e-01
      outer loop
         vertex 7.163893e+01 2.577694e+01 1.034567e+02
         vertex 7.163912e+01 2.877694e+01 1.034566e+02
         vertex 7.196020e+01 2.577692e+01 1.032317e+02
      endloop
   endfacet
   facet normal -8.715517e-02 1.791697e-05 9.961947e-01
      outer loop
         vertex 7.090483e+01 2.877693e+01 9.929226e+01
         vertex 7.051393e+01 2.577696e+01 9.925811e+01
         vertex 7.090464e+01 2.577693e+01 9.929230e+01
      endloop
   endfacet
   facet normal -2.588179e-01 2.846578e-05 9.659261e-01
      outer loop
         vertex 7.128366e+01 2.877691e+01 9.939377e+01
         vertex 7.090483e+01 2.877693e+01 9.929226e+01
         vertex 7.090464e+01 2.577693e+01 9.929230e+01
      endloop
   endfacet
   facet normal -4.226206e-01 1.551035e-05 -9.063067e-01
      outer loop
         vertex 7.128366e+01 2.877696e+01 1.036224e+02
         vertex 7.163912e+01 2.877694e+01 1.034566e+02
         vertex 7.163893e+01 2.577694e+01 1.034567e+02
      endloop
   endfacet
   facet normal -4.226197e-01 1.564149e-05 -9.063071e-01
      outer loop
         vertex 7.128347e+01 2.577696e+01 1.036224e+02
         vertex 7.128366e+01 2.877696e+01 1.036224e+02
         vertex 7.163893e+01 2.577694e+01 1.034567e+02
      endloop
   endfacet
   facet normal 8.715517e-02 6.823793e-06 9.961947e-01
      outer loop
         vertex 7.051412e+01 2.877696e+01 9.925808e+01
         vertex 7.012322e+01 2.577698e+01 9.929230e+01
         vertex 7.051393e+01 2.577696e+01 9.925811e+01
      endloop
   endfacet
   facet normal -8.715517e-02 1.791697e-05 9.961947e-01
      outer loop
         vertex 7.090483e+01 2.877693e+01 9.929226e+01
         vertex 7.051412e+01 2.877696e+01 9.925808e+01
         vertex 7.051393e+01 2.577696e+01 9.925811e+01
      endloop
   endfacet
   facet normal -2.588179e-01 4.476753e-06 -9.659261e-01
      outer loop
         vertex 7.090483e+01 2.877699e+01 1.037239e+02
         vertex 7.128366e+01 2.877696e+01 1.036224e+02
         vertex 7.128347e+01 2.577696e+01 1.036224e+02
      endloop
   endfacet
   facet normal -2.588179e-01 4.476753e-06 -9.659261e-01
      outer loop
         vertex 7.090464e+01 2.577699e+01 1.037239e+02
         vertex 7.090483e+01 2.877699e+01 1.037239e+02
         vertex 7.128347e+01 2.577696e+01 1.036224e+02
      endloop
   endfacet
   facet normal -6.370363e-05 -1.000000e+00 1.034066e-05
      outer loop
         vertex 5.276393e+01 2.577811e+01 1.015081e+02
         vertex 5.272975e+01 2.577811e+01 1.011174e+02
         vertex 7.012322e+01 2.577698e+01 9.929230e+01
      endloop
   endfacet
   facet normal -6.602962e-05 -1.000000e+00 -7.881700e-06
      outer loop
         vertex 6.974438e+01 2.577701e+01 9.939380e+01
         vertex 5.276393e+01 2.577811e+01 1.015081e+02
         vertex 7.012322e+01 2.577698e+01 9.929230e+01
      endloop
   endfacet
   facet normal 2.588202e-01 -4.476902e-06 9.659255e-01
      outer loop
         vertex 7.012341e+01 2.877698e+01 9.929226e+01
         vertex 6.974438e+01 2.577701e+01 9.939380e+01
         vertex 7.012322e+01 2.577698e+01 9.929230e+01
      endloop
   endfacet
   facet normal 8.715517e-02 6.823793e-06 9.961947e-01
      outer loop
         vertex 7.051412e+01 2.877696e+01 9.925808e+01
         vertex 7.012341e+01 2.877698e+01 9.929226e+01
         vertex 7.012322e+01 2.577698e+01 9.929230e+01
      endloop
   endfacet
   facet normal -8.715281e-02 -6.823946e-06 -9.961950e-01
      outer loop
         vertex 7.051412e+01 2.877701e+01 1.037581e+02
         vertex 7.090483e+01 2.877699e+01 1.037239e+02
         vertex 7.090464e+01 2.577699e+01 1.037239e+02
      endloop
   endfacet
   facet normal -8.715752e-02 -7.442160e-06 -9.961945e-01
      outer loop
         vertex 7.051393e+01 2.577701e+01 1.037581e+02
         vertex 7.051412e+01 2.877701e+01 1.037581e+02
         vertex 7.090464e+01 2.577699e+01 1.037239e+02
      endloop
   endfacet
   facet normal -6.336408e-05 -1.000000e+00 1.352581e-05
      outer loop
         vertex 5.272975e+01 2.577812e+01 1.018988e+02
         vertex 5.276393e+01 2.577811e+01 1.015081e+02
         vertex 6.974438e+01 2.577701e+01 9.939380e+01
      endloop
   endfacet
   facet normal -6.166088e-05 -1.000000e+00 2.509434e-05
      outer loop
         vertex 6.938893e+01 2.577703e+01 9.955956e+01
         vertex 5.272975e+01 2.577812e+01 1.018988e+02
         vertex 6.974438e+01 2.577701e+01 9.939380e+01
      endloop
   endfacet
   facet normal 4.226187e-01 -1.536006e-05 9.063076e-01
      outer loop
         vertex 6.974457e+01 2.877701e+01 9.939377e+01
         vertex 6.938893e+01 2.577703e+01 9.955956e+01
         vertex 6.974438e+01 2.577701e+01 9.939380e+01
      endloop
   endfacet
   facet normal 2.588179e-01 -4.176890e-06 9.659261e-01
      outer loop
         vertex 7.012341e+01 2.877698e+01 9.929226e+01
         vertex 6.974457e+01 2.877701e+01 9.939377e+01
         vertex 6.974438e+01 2.577701e+01 9.939380e+01
      endloop
   endfacet
   facet normal 8.715281e-02 -1.853534e-05 -9.961950e-01
      outer loop
         vertex 7.012341e+01 2.877704e+01 1.037239e+02
         vertex 7.051412e+01 2.877701e+01 1.037581e+02
         vertex 7.051393e+01 2.577701e+01 1.037581e+02
      endloop
   endfacet
   facet normal 8.715752e-02 -1.791711e-05 -9.961945e-01
      outer loop
         vertex 7.012322e+01 2.577704e+01 1.037239e+02
         vertex 7.012341e+01 2.877704e+01 1.037239e+02
         vertex 7.051393e+01 2.577701e+01 1.037581e+02
      endloop
   endfacet
   facet normal -6.408388e-05 -1.000000e+00 7.838805e-06
      outer loop
         vertex 6.906766e+01 2.577706e+01 9.978451e+01
         vertex 5.272975e+01 2.577812e+01 1.018988e+02
         vertex 6.938893e+01 2.577703e+01 9.955956e+01
      endloop
   endfacet
   facet normal 5.735769e-01 -2.589838e-05 8.191517e-01
      outer loop
         vertex 6.938912e+01 2.877703e+01 9.955952e+01
         vertex 6.906766e+01 2.577706e+01 9.978451e+01
         vertex 6.938893e+01 2.577703e+01 9.955956e+01
      endloop
   endfacet
   facet normal 4.226178e-01 -1.522881e-05 9.063080e-01
      outer loop
         vertex 6.974457e+01 2.877701e+01 9.939377e+01
         vertex 6.938912e+01 2.877703e+01 9.955952e+01
         vertex 6.938893e+01 2.577703e+01 9.955956e+01
      endloop
   endfacet
   facet normal -6.507840e-05 -1.000000e+00 4.331762e-06
      outer loop
         vertex 3.051393e+01 2.577965e+01 1.115081e+02
         vertex 6.974438e+01 2.577706e+01 1.036224e+02
         vertex 7.012322e+01 2.577704e+01 1.037239e+02
      endloop
   endfacet
   facet normal 2.588179e-01 -2.846578e-05 -9.659261e-01
      outer loop
         vertex 6.974457e+01 2.877706e+01 1.036224e+02
         vertex 7.012341e+01 2.877704e+01 1.037239e+02
         vertex 7.012322e+01 2.577704e+01 1.037239e+02
      endloop
   endfacet
   facet normal 2.588179e-01 -2.846580e-05 -9.659261e-01
      outer loop
         vertex 6.974438e+01 2.577706e+01 1.036224e+02
         vertex 6.974457e+01 2.877706e+01 1.036224e+02
         vertex 7.012322e+01 2.577704e+01 1.037239e+02
      endloop
   endfacet
   facet normal -6.001695e-05 -1.000000e+00 2.861959e-05
      outer loop
         vertex 5.128347e+01 2.577823e+01 1.036224e+02
         vertex 5.163893e+01 2.577821e+01 1.034567e+02
         vertex 6.906766e+01 2.577706e+01 9.978451e+01
      endloop
   endfacet
   facet normal -6.452952e-05 -1.000000e+00 7.202106e-06
      outer loop
         vertex 5.163893e+01 2.577821e+01 1.034567e+02
         vertex 5.196020e+01 2.577819e+01 1.032317e+02
         vertex 6.906766e+01 2.577706e+01 9.978451e+01
      endloop
   endfacet
   facet normal -6.398723e-05 -1.000000e+00 9.893310e-06
      outer loop
         vertex 5.196020e+01 2.577819e+01 1.032317e+02
         vertex 5.223753e+01 2.577817e+01 1.029544e+02
         vertex 6.906766e+01 2.577706e+01 9.978451e+01
      endloop
   endfacet
   facet normal -6.327572e-05 -1.000000e+00 1.367100e-05
      outer loop
         vertex 5.223753e+01 2.577817e+01 1.029544e+02
         vertex 5.246249e+01 2.577815e+01 1.026331e+02
         vertex 6.906766e+01 2.577706e+01 9.978451e+01
      endloop
   endfacet
   facet normal -6.350983e-05 -1.000000e+00 1.230631e-05
      outer loop
         vertex 5.246249e+01 2.577815e+01 1.026331e+02
         vertex 5.262824e+01 2.577813e+01 1.022777e+02
         vertex 6.906766e+01 2.577706e+01 9.978451e+01
      endloop
   endfacet
   facet normal -6.348190e-05 -1.000000e+00 1.249048e-05
      outer loop
         vertex 5.262824e+01 2.577813e+01 1.022777e+02
         vertex 5.272975e+01 2.577812e+01 1.018988e+02
         vertex 6.906766e+01 2.577706e+01 9.978451e+01
      endloop
   endfacet
   facet normal -7.561064e-05 -1.000000e+00 -4.363879e-05
      outer loop
         vertex 5.090464e+01 2.577826e+01 1.037239e+02
         vertex 5.128347e+01 2.577823e+01 1.036224e+02
         vertex 6.906766e+01 2.577706e+01 9.978451e+01
      endloop
   endfacet
   facet normal -6.400352e-05 -1.000000e+00 9.876803e-06
      outer loop
         vertex 6.879033e+01 2.577708e+01 1.000618e+02
         vertex 5.090464e+01 2.577826e+01 1.037239e+02
         vertex 6.906766e+01 2.577706e+01 9.978451e+01
      endloop
   endfacet
   facet normal 7.071056e-01 -3.578082e-05 7.071080e-01
      outer loop
         vertex 6.906785e+01 2.877706e+01 9.978447e+01
         vertex 6.879033e+01 2.577708e+01 1.000618e+02
         vertex 6.906766e+01 2.577706e+01 9.978451e+01
      endloop
   endfacet
   facet normal 5.735769e-01 -2.589836e-05 8.191517e-01
      outer loop
         vertex 6.938912e+01 2.877703e+01 9.955952e+01
         vertex 6.906785e+01 2.877706e+01 9.978447e+01
         vertex 6.906766e+01 2.577706e+01 9.978451e+01
      endloop
   endfacet
   facet normal -6.344687e-05 -1.000000e+00 1.244845e-05
      outer loop
         vertex 3.051393e+01 2.577965e+01 1.115081e+02
         vertex 6.938893e+01 2.577708e+01 1.034567e+02
         vertex 6.974438e+01 2.577706e+01 1.036224e+02
      endloop
   endfacet
   facet normal 4.226197e-01 -3.814989e-05 -9.063071e-01
      outer loop
         vertex 6.938912e+01 2.877708e+01 1.034566e+02
         vertex 6.974457e+01 2.877706e+01 1.036224e+02
         vertex 6.974438e+01 2.577706e+01 1.036224e+02
      endloop
   endfacet
   facet normal 4.226206e-01 -3.801874e-05 -9.063067e-01
      outer loop
         vertex 6.938893e+01 2.577708e+01 1.034567e+02
         vertex 6.938912e+01 2.877708e+01 1.034566e+02
         vertex 6.974438e+01 2.577706e+01 1.036224e+02
      endloop
   endfacet
   facet normal -6.321844e-05 -1.000000e+00 1.371115e-05
      outer loop
         vertex 6.856537e+01 2.577710e+01 1.003831e+02
         vertex 5.090464e+01 2.577826e+01 1.037239e+02
         vertex 6.879033e+01 2.577708e+01 1.000618e+02
      endloop
   endfacet
   facet normal 8.191517e-01 -4.475435e-05 5.735769e-01
      outer loop
         vertex 6.879052e+01 2.877708e+01 1.000618e+02
         vertex 6.856537e+01 2.577710e+01 1.003831e+02
         vertex 6.879033e+01 2.577708e+01 1.000618e+02
      endloop
   endfacet
   facet normal 7.071068e-01 -3.600043e-05 7.071068e-01
      outer loop
         vertex 6.906785e+01 2.877706e+01 9.978447e+01
         vertex 6.879052e+01 2.877708e+01 1.000618e+02
         vertex 6.879033e+01 2.577708e+01 1.000618e+02
      endloop
   endfacet
   facet normal -6.286459e-05 -1.000000e+00 1.525986e-05
      outer loop
         vertex 3.051393e+01 2.577965e+01 1.115081e+02
         vertex 6.906766e+01 2.577710e+01 1.032317e+02
         vertex 6.938893e+01 2.577708e+01 1.034567e+02
      endloop
   endfacet
   facet normal 5.735769e-01 -4.649654e-05 -8.191517e-01
      outer loop
         vertex 6.906785e+01 2.877710e+01 1.032317e+02
         vertex 6.938912e+01 2.877708e+01 1.034566e+02
         vertex 6.938893e+01 2.577708e+01 1.034567e+02
      endloop
   endfacet
   facet normal 5.735769e-01 -4.649651e-05 -8.191517e-01
      outer loop
         vertex 6.906766e+01 2.577710e+01 1.032317e+02
         vertex 6.906785e+01 2.877710e+01 1.032317e+02
         vertex 6.938893e+01 2.577708e+01 1.034567e+02
      endloop
   endfacet
   facet normal -6.348172e-05 -1.000000e+00 1.231939e-05
      outer loop
         vertex 6.839962e+01 2.577711e+01 1.007386e+02
         vertex 5.090464e+01 2.577826e+01 1.037239e+02
         vertex 6.856537e+01 2.577710e+01 1.003831e+02
      endloop
   endfacet
   facet normal 9.063080e-01 -5.214851e-05 4.226178e-01
      outer loop
         vertex 6.856556e+01 2.877710e+01 1.003831e+02
         vertex 6.839962e+01 2.577711e+01 1.007386e+02
         vertex 6.856537e+01 2.577710e+01 1.003831e+02
      endloop
   endfacet
   facet normal 8.191517e-01 -4.475435e-05 5.735769e-01
      outer loop
         vertex 6.879052e+01 2.877708e+01 1.000618e+02
         vertex 6.856556e+01 2.877710e+01 1.003831e+02
         vertex 6.856537e+01 2.577710e+01 1.003831e+02
      endloop
   endfacet
   facet normal -6.394732e-05 -1.000000e+00 1.021623e-05
      outer loop
         vertex 3.051393e+01 2.577965e+01 1.115081e+02
         vertex 6.879033e+01 2.577711e+01 1.029544e+02
         vertex 6.906766e+01 2.577710e+01 1.032317e+02
      endloop
   endfacet
   facet normal 7.071056e-01 -5.356155e-05 -7.071080e-01
      outer loop
         vertex 6.879052e+01 2.877711e+01 1.029543e+02
         vertex 6.906785e+01 2.877710e+01 1.032317e+02
         vertex 6.906766e+01 2.577710e+01 1.032317e+02
      endloop
   endfacet
   facet normal 7.071056e-01 -5.356158e-05 -7.071080e-01
      outer loop
         vertex 6.879033e+01 2.577711e+01 1.029544e+02
         vertex 6.879052e+01 2.877711e+01 1.029543e+02
         vertex 6.906766e+01 2.577710e+01 1.032317e+02
      endloop
   endfacet
   facet normal -6.345110e-05 -1.000000e+00 1.249881e-05
      outer loop
         vertex 6.829811e+01 2.577712e+01 1.011174e+02
         vertex 5.090464e+01 2.577826e+01 1.037239e+02
         vertex 6.839962e+01 2.577711e+01 1.007386e+02
      endloop
   endfacet
   facet normal 9.659258e-01 -5.795809e-05 2.588191e-01
      outer loop
         vertex 6.839981e+01 2.877711e+01 1.007385e+02
         vertex 6.829811e+01 2.577712e+01 1.011174e+02
         vertex 6.839962e+01 2.577711e+01 1.007386e+02
      endloop
   endfacet
   facet normal 9.063080e-01 -5.214851e-05 4.226178e-01
      outer loop
         vertex 6.856556e+01 2.877710e+01 1.003831e+02
         vertex 6.839981e+01 2.877711e+01 1.007385e+02
         vertex 6.839962e+01 2.577711e+01 1.007386e+02
      endloop
   endfacet
   facet normal -6.287069e-05 -1.000000e+00 1.503397e-05
      outer loop
         vertex 3.051393e+01 2.577965e+01 1.115081e+02
         vertex 6.856537e+01 2.577712e+01 1.026331e+02
         vertex 6.879033e+01 2.577711e+01 1.029544e+02
      endloop
   endfacet
   facet normal 8.191525e-01 -5.899936e-05 -5.735758e-01
      outer loop
         vertex 6.856556e+01 2.877712e+01 1.026331e+02
         vertex 6.879052e+01 2.877711e+01 1.029543e+02
         vertex 6.879033e+01 2.577711e+01 1.029544e+02
      endloop
   endfacet
   facet normal 8.191517e-01 -5.917734e-05 -5.735769e-01
      outer loop
         vertex 6.856537e+01 2.577712e+01 1.026331e+02
         vertex 6.856556e+01 2.877712e+01 1.026331e+02
         vertex 6.879033e+01 2.577711e+01 1.029544e+02
      endloop
   endfacet
   facet normal -6.329631e-05 -1.000000e+00 1.353174e-05
      outer loop
         vertex 6.826393e+01 2.577713e+01 1.015081e+02
         vertex 5.090464e+01 2.577826e+01 1.037239e+02
         vertex 6.829811e+01 2.577712e+01 1.011174e+02
      endloop
   endfacet
   facet normal 9.961947e-01 -6.216131e-05 8.715517e-02
      outer loop
         vertex 6.829830e+01 2.877712e+01 1.011174e+02
         vertex 6.826393e+01 2.577713e+01 1.015081e+02
         vertex 6.829811e+01 2.577712e+01 1.011174e+02
      endloop
   endfacet
   facet normal 9.659261e-01 -5.810805e-05 2.588179e-01
      outer loop
         vertex 6.839981e+01 2.877711e+01 1.007385e+02
         vertex 6.829830e+01 2.877712e+01 1.011174e+02
         vertex 6.829811e+01 2.577712e+01 1.011174e+02
      endloop
   endfacet
   facet normal -6.427538e-05 -1.000000e+00 9.011379e-06
      outer loop
         vertex 3.051393e+01 2.577965e+01 1.115081e+02
         vertex 6.839962e+01 2.577713e+01 1.022777e+02
         vertex 6.856537e+01 2.577712e+01 1.026331e+02
      endloop
   endfacet
   facet normal 9.063076e-01 -6.277551e-05 -4.226187e-01
      outer loop
         vertex 6.839981e+01 2.877713e+01 1.022776e+02
         vertex 6.856556e+01 2.877712e+01 1.026331e+02
         vertex 6.856537e+01 2.577712e+01 1.026331e+02
      endloop
   endfacet
   facet normal 9.063080e-01 -6.264437e-05 -4.226178e-01
      outer loop
         vertex 6.839962e+01 2.577713e+01 1.022777e+02
         vertex 6.839981e+01 2.877713e+01 1.022776e+02
         vertex 6.856537e+01 2.577712e+01 1.026331e+02
      endloop
   endfacet
   facet normal -6.370363e-05 -1.000000e+00 1.034066e-05
      outer loop
         vertex 6.829811e+01 2.577713e+01 1.018988e+02
         vertex 5.090464e+01 2.577826e+01 1.037239e+02
         vertex 6.826393e+01 2.577713e+01 1.015081e+02
      endloop
   endfacet
   facet normal 9.961947e-01 -6.417120e-05 -8.715517e-02
      outer loop
         vertex 6.826412e+01 2.877713e+01 1.015081e+02
         vertex 6.829811e+01 2.577713e+01 1.018988e+02
         vertex 6.826393e+01 2.577713e+01 1.015081e+02
      endloop
   endfacet
   facet normal 9.961946e-01 -6.200666e-05 8.715635e-02
      outer loop
         vertex 6.829830e+01 2.877712e+01 1.011174e+02
         vertex 6.826412e+01 2.877713e+01 1.015081e+02
         vertex 6.826393e+01 2.577713e+01 1.015081e+02
      endloop
   endfacet
   facet normal -6.301690e-05 -1.000000e+00 1.688533e-05
      outer loop
         vertex 6.839962e+01 2.577713e+01 1.022777e+02
         vertex 5.090464e+01 2.577826e+01 1.037239e+02
         vertex 6.829811e+01 2.577713e+01 1.018988e+02
      endloop
   endfacet
   facet normal 9.659258e-01 -6.453586e-05 -2.588191e-01
      outer loop
         vertex 6.829830e+01 2.877713e+01 1.018988e+02
         vertex 6.839962e+01 2.577713e+01 1.022777e+02
         vertex 6.829811e+01 2.577713e+01 1.018988e+02
      endloop
   endfacet
   facet normal 9.961946e-01 -6.432584e-05 -8.715635e-02
      outer loop
         vertex 6.826412e+01 2.877713e+01 1.015081e+02
         vertex 6.829830e+01 2.877713e+01 1.018988e+02
         vertex 6.829811e+01 2.577713e+01 1.018988e+02
      endloop
   endfacet
   facet normal -6.335580e-05 -1.000000e+00 1.278570e-05
      outer loop
         vertex 3.051393e+01 2.577965e+01 1.115081e+02
         vertex 5.090464e+01 2.577826e+01 1.037239e+02
         vertex 6.839962e+01 2.577713e+01 1.022777e+02
      endloop
   endfacet
   facet normal 9.659261e-01 -6.438597e-05 -2.588179e-01
      outer loop
         vertex 6.829830e+01 2.877713e+01 1.018988e+02
         vertex 6.839981e+01 2.877713e+01 1.022776e+02
         vertex 6.839962e+01 2.577713e+01 1.022777e+02
      endloop
   endfacet
   facet normal -9.063080e-01 6.292569e-05 4.226178e-01
      outer loop
         vertex 5.262843e+01 2.877811e+01 1.007385e+02
         vertex 5.246249e+01 2.577812e+01 1.003831e+02
         vertex 5.262824e+01 2.577811e+01 1.007386e+02
      endloop
   endfacet
   facet normal -9.659261e-01 6.468580e-05 2.588179e-01
      outer loop
         vertex 5.272994e+01 2.877811e+01 1.011174e+02
         vertex 5.262843e+01 2.877811e+01 1.007385e+02
         vertex 5.262824e+01 2.577811e+01 1.007386e+02
      endloop
   endfacet
   facet normal -9.659255e-01 6.438596e-05 2.588202e-01
      outer loop
         vertex 5.272975e+01 2.577811e+01 1.011174e+02
         vertex 5.272994e+01 2.877811e+01 1.011174e+02
         vertex 5.262824e+01 2.577811e+01 1.007386e+02
      endloop
   endfacet
   facet normal -9.961946e-01 6.417125e-05 8.715634e-02
      outer loop
         vertex 5.276412e+01 2.877811e+01 1.015081e+02
         vertex 5.272994e+01 2.877811e+01 1.011174e+02
         vertex 5.272975e+01 2.577811e+01 1.011174e+02
      endloop
   endfacet
   facet normal -9.961947e-01 6.432583e-05 8.715517e-02
      outer loop
         vertex 5.276393e+01 2.577811e+01 1.015081e+02
         vertex 5.276412e+01 2.877811e+01 1.015081e+02
         vertex 5.272975e+01 2.577811e+01 1.011174e+02
      endloop
   endfacet
   facet normal -9.961946e-01 6.216129e-05 -8.715635e-02
      outer loop
         vertex 5.272994e+01 2.877812e+01 1.018988e+02
         vertex 5.276412e+01 2.877811e+01 1.015081e+02
         vertex 5.276393e+01 2.577811e+01 1.015081e+02
      endloop
   endfacet
   facet normal -9.961947e-01 6.200672e-05 -8.715517e-02
      outer loop
         vertex 5.272975e+01 2.577812e+01 1.018988e+02
         vertex 5.272994e+01 2.877812e+01 1.018988e+02
         vertex 5.276393e+01 2.577811e+01 1.015081e+02
      endloop
   endfacet
   facet normal -8.191517e-01 5.925362e-05 5.735769e-01
      outer loop
         vertex 5.246268e+01 2.877812e+01 1.003831e+02
         vertex 5.223753e+01 2.577813e+01 1.000618e+02
         vertex 5.246249e+01 2.577812e+01 1.003831e+02
      endloop
   endfacet
   facet normal -9.063080e-01 6.292572e-05 4.226178e-01
      outer loop
         vertex 5.262843e+01 2.877811e+01 1.007385e+02
         vertex 5.246268e+01 2.877812e+01 1.003831e+02
         vertex 5.246249e+01 2.577812e+01 1.003831e+02
      endloop
   endfacet
   facet normal -9.659261e-01 5.795816e-05 -2.588179e-01
      outer loop
         vertex 5.262843e+01 2.877813e+01 1.022776e+02
         vertex 5.272994e+01 2.877812e+01 1.018988e+02
         vertex 5.272975e+01 2.577812e+01 1.018988e+02
      endloop
   endfacet
   facet normal -9.659255e-01 5.825796e-05 -2.588202e-01
      outer loop
         vertex 5.262824e+01 2.577813e+01 1.022777e+02
         vertex 5.262843e+01 2.877813e+01 1.022776e+02
         vertex 5.272975e+01 2.577812e+01 1.018988e+02
      endloop
   endfacet
   facet normal -7.071068e-01 5.378113e-05 7.071068e-01
      outer loop
         vertex 5.223772e+01 2.877813e+01 1.000618e+02
         vertex 5.196020e+01 2.577814e+01 9.978451e+01
         vertex 5.223753e+01 2.577813e+01 1.000618e+02
      endloop
   endfacet
   facet normal -8.191517e-01 5.925358e-05 5.735769e-01
      outer loop
         vertex 5.246268e+01 2.877812e+01 1.003831e+02
         vertex 5.223772e+01 2.877813e+01 1.000618e+02
         vertex 5.223753e+01 2.577813e+01 1.000618e+02
      endloop
   endfacet
   facet normal -9.063076e-01 5.242985e-05 -4.226187e-01
      outer loop
         vertex 5.246268e+01 2.877815e+01 1.026331e+02
         vertex 5.262843e+01 2.877813e+01 1.022776e+02
         vertex 5.262824e+01 2.577813e+01 1.022777e+02
      endloop
   endfacet
   facet normal -9.063076e-01 5.242982e-05 -4.226187e-01
      outer loop
         vertex 5.246249e+01 2.577815e+01 1.026331e+02
         vertex 5.246268e+01 2.877815e+01 1.026331e+02
         vertex 5.262824e+01 2.577813e+01 1.022777e+02
      endloop
   endfacet
   facet normal -5.735758e-01 4.675075e-05 8.191525e-01
      outer loop
         vertex 5.196039e+01 2.877814e+01 9.978447e+01
         vertex 5.163893e+01 2.577816e+01 9.955956e+01
         vertex 5.196020e+01 2.577814e+01 9.978451e+01
      endloop
   endfacet
   facet normal -7.071068e-01 5.378113e-05 7.071068e-01
      outer loop
         vertex 5.223772e+01 2.877813e+01 1.000618e+02
         vertex 5.196039e+01 2.877814e+01 9.978447e+01
         vertex 5.196020e+01 2.577814e+01 9.978451e+01
      endloop
   endfacet
   facet normal -8.191525e-01 4.500871e-05 -5.735758e-01
      outer loop
         vertex 5.223772e+01 2.877816e+01 1.029543e+02
         vertex 5.246268e+01 2.877815e+01 1.026331e+02
         vertex 5.246249e+01 2.577815e+01 1.026331e+02
      endloop
   endfacet
   facet normal -8.191525e-01 4.500874e-05 -5.735758e-01
      outer loop
         vertex 5.223753e+01 2.577817e+01 1.029544e+02
         vertex 5.223772e+01 2.877816e+01 1.029543e+02
         vertex 5.246249e+01 2.577815e+01 1.026331e+02
      endloop
   endfacet
   facet normal -4.226187e-01 3.843116e-05 9.063076e-01
      outer loop
         vertex 5.163912e+01 2.877816e+01 9.955952e+01
         vertex 5.128347e+01 2.577818e+01 9.939380e+01
         vertex 5.163893e+01 2.577816e+01 9.955956e+01
      endloop
   endfacet
   facet normal -5.735769e-01 4.692887e-05 8.191517e-01
      outer loop
         vertex 5.196039e+01 2.877814e+01 9.978447e+01
         vertex 5.163912e+01 2.877816e+01 9.955952e+01
         vertex 5.163893e+01 2.577816e+01 9.955956e+01
      endloop
   endfacet
   facet normal -7.071056e-01 3.621987e-05 -7.071080e-01
      outer loop
         vertex 5.196039e+01 2.877819e+01 1.032317e+02
         vertex 5.223772e+01 2.877816e+01 1.029543e+02
         vertex 5.223753e+01 2.577817e+01 1.029544e+02
      endloop
   endfacet
   facet normal -7.071068e-01 3.600043e-05 -7.071068e-01
      outer loop
         vertex 5.196020e+01 2.577819e+01 1.032317e+02
         vertex 5.196039e+01 2.877819e+01 1.032317e+02
         vertex 5.223753e+01 2.577817e+01 1.029544e+02
      endloop
   endfacet
   facet normal -2.588202e-01 2.868543e-05 9.659255e-01
      outer loop
         vertex 5.128366e+01 2.877818e+01 9.939377e+01
         vertex 5.090464e+01 2.577820e+01 9.929230e+01
         vertex 5.128347e+01 2.577818e+01 9.939380e+01
      endloop
   endfacet
   facet normal -4.226178e-01 3.829991e-05 9.063080e-01
      outer loop
         vertex 5.163912e+01 2.877816e+01 9.955952e+01
         vertex 5.128366e+01 2.877818e+01 9.939377e+01
         vertex 5.128347e+01 2.577818e+01 9.939380e+01
      endloop
   endfacet
   facet normal -5.735769e-01 2.615266e-05 -8.191517e-01
      outer loop
         vertex 5.163912e+01 2.877821e+01 1.034566e+02
         vertex 5.196039e+01 2.877819e+01 1.032317e+02
         vertex 5.196020e+01 2.577819e+01 1.032317e+02
      endloop
   endfacet
   facet normal -5.735758e-01 2.633064e-05 -8.191525e-01
      outer loop
         vertex 5.163893e+01 2.577821e+01 1.034567e+02
         vertex 5.163912e+01 2.877821e+01 1.034566e+02
         vertex 5.196020e+01 2.577819e+01 1.032317e+02
      endloop
   endfacet
   facet normal -7.564604e-05 -1.000000e+00 1.017635e-04
      outer loop
         vertex 5.051393e+01 2.577823e+01 9.925811e+01
         vertex 3.051393e+01 2.577946e+01 9.650811e+01
         vertex 5.090464e+01 2.577820e+01 9.929230e+01
      endloop
   endfacet
   facet normal -8.715517e-02 1.788991e-05 9.961947e-01
      outer loop
         vertex 5.090483e+01 2.877820e+01 9.929226e+01
         vertex 5.051393e+01 2.577823e+01 9.925811e+01
         vertex 5.090464e+01 2.577820e+01 9.929230e+01
      endloop
   endfacet
   facet normal -2.588179e-01 2.838544e-05 9.659261e-01
      outer loop
         vertex 5.128366e+01 2.877818e+01 9.939377e+01
         vertex 5.090483e+01 2.877820e+01 9.929226e+01
         vertex 5.090464e+01 2.577820e+01 9.929230e+01
      endloop
   endfacet
   facet normal -4.226197e-01 1.564149e-05 -9.063071e-01
      outer loop
         vertex 5.128366e+01 2.877823e+01 1.036224e+02
         vertex 5.163912e+01 2.877821e+01 1.034566e+02
         vertex 5.163893e+01 2.577821e+01 1.034567e+02
      endloop
   endfacet
   facet normal -4.226206e-01 1.551036e-05 -9.063067e-01
      outer loop
         vertex 5.128347e+01 2.577823e+01 1.036224e+02
         vertex 5.128366e+01 2.877823e+01 1.036224e+02
         vertex 5.163893e+01 2.577821e+01 1.034567e+02
      endloop
   endfacet
   facet normal -6.185037e-05 -1.000000e+00 1.431344e-06
      outer loop
         vertex 5.012322e+01 2.577825e+01 9.929230e+01
         vertex 3.051393e+01 2.577946e+01 9.650811e+01
         vertex 5.051393e+01 2.577823e+01 9.925811e+01
      endloop
   endfacet
   facet normal 8.715517e-02 6.850854e-06 9.961947e-01
      outer loop
         vertex 5.051412e+01 2.877823e+01 9.925808e+01
         vertex 5.012322e+01 2.577825e+01 9.929230e+01
         vertex 5.051393e+01 2.577823e+01 9.925811e+01
      endloop
   endfacet
   facet normal -8.715517e-02 1.788992e-05 9.961947e-01
      outer loop
         vertex 5.090483e+01 2.877820e+01 9.929226e+01
         vertex 5.051412e+01 2.877823e+01 9.925808e+01
         vertex 5.051393e+01 2.577823e+01 9.925811e+01
      endloop
   endfacet
   facet normal -2.588179e-01 4.396408e-06 -9.659261e-01
      outer loop
         vertex 5.090483e+01 2.877826e+01 1.037239e+02
         vertex 5.128366e+01 2.877823e+01 1.036224e+02
         vertex 5.128347e+01 2.577823e+01 1.036224e+02
      endloop
   endfacet
   facet normal -2.588179e-01 4.396406e-06 -9.659261e-01
      outer loop
         vertex 5.090464e+01 2.577826e+01 1.037239e+02
         vertex 5.090483e+01 2.877826e+01 1.037239e+02
         vertex 5.128347e+01 2.577823e+01 1.036224e+02
      endloop
   endfacet
   facet normal -6.413651e-05 -1.000000e+00 1.753291e-05
      outer loop
         vertex 4.974438e+01 2.577828e+01 9.939380e+01
         vertex 3.051393e+01 2.577946e+01 9.650811e+01
         vertex 5.012322e+01 2.577825e+01 9.929230e+01
      endloop
   endfacet
   facet normal 2.588202e-01 -4.396553e-06 9.659255e-01
      outer loop
         vertex 5.012341e+01 2.877825e+01 9.929226e+01
         vertex 4.974438e+01 2.577828e+01 9.939380e+01
         vertex 5.012322e+01 2.577825e+01 9.929230e+01
      endloop
   endfacet
   facet normal 8.715517e-02 6.850850e-06 9.961947e-01
      outer loop
         vertex 5.051412e+01 2.877823e+01 9.925808e+01
         vertex 5.012341e+01 2.877825e+01 9.929226e+01
         vertex 5.012322e+01 2.577825e+01 9.929230e+01
      endloop
   endfacet
   facet normal -6.629880e-05 -1.000000e+00 5.076512e-06
      outer loop
         vertex 3.051393e+01 2.577965e+01 1.115081e+02
         vertex 5.051393e+01 2.577828e+01 1.037581e+02
         vertex 5.090464e+01 2.577826e+01 1.037239e+02
      endloop
   endfacet
   facet normal -8.715281e-02 -6.851002e-06 -9.961950e-01
      outer loop
         vertex 5.051412e+01 2.877828e+01 1.037581e+02
         vertex 5.090483e+01 2.877826e+01 1.037239e+02
         vertex 5.090464e+01 2.577826e+01 1.037239e+02
      endloop
   endfacet
   facet normal -8.715752e-02 -7.469222e-06 -9.961945e-01
      outer loop
         vertex 5.051393e+01 2.577828e+01 1.037581e+02
         vertex 5.051412e+01 2.877828e+01 1.037581e+02
         vertex 5.090464e+01 2.577826e+01 1.037239e+02
      endloop
   endfacet
   facet normal -6.311642e-05 -1.000000e+00 1.073496e-05
      outer loop
         vertex 4.938893e+01 2.577830e+01 9.955956e+01
         vertex 3.051393e+01 2.577946e+01 9.650811e+01
         vertex 4.974438e+01 2.577828e+01 9.939380e+01
      endloop
   endfacet
   facet normal 4.226178e-01 -1.522881e-05 9.063080e-01
      outer loop
         vertex 4.974457e+01 2.877828e+01 9.939377e+01
         vertex 4.938893e+01 2.577830e+01 9.955956e+01
         vertex 4.974438e+01 2.577828e+01 9.939380e+01
      endloop
   endfacet
   facet normal 2.588179e-01 -4.096545e-06 9.659261e-01
      outer loop
         vertex 5.012341e+01 2.877825e+01 9.929226e+01
         vertex 4.974457e+01 2.877828e+01 9.939377e+01
         vertex 4.974438e+01 2.577828e+01 9.939380e+01
      endloop
   endfacet
   facet normal -6.313424e-05 -1.000000e+00 1.324312e-05
      outer loop
         vertex 3.051393e+01 2.577965e+01 1.115081e+02
         vertex 5.012322e+01 2.577831e+01 1.037239e+02
         vertex 5.051393e+01 2.577828e+01 1.037581e+02
      endloop
   endfacet
   facet normal 8.715281e-02 -1.850829e-05 -9.961950e-01
      outer loop
         vertex 5.012341e+01 2.877831e+01 1.037239e+02
         vertex 5.051412e+01 2.877828e+01 1.037581e+02
         vertex 5.051393e+01 2.577828e+01 1.037581e+02
      endloop
   endfacet
   facet normal 8.715752e-02 -1.789007e-05 -9.961945e-01
      outer loop
         vertex 5.012322e+01 2.577831e+01 1.037239e+02
         vertex 5.012341e+01 2.877831e+01 1.037239e+02
         vertex 5.051393e+01 2.577828e+01 1.037581e+02
      endloop
   endfacet
   facet normal -6.291751e-05 -1.000000e+00 9.504558e-06
      outer loop
         vertex 4.906766e+01 2.577833e+01 9.978451e+01
         vertex 3.051393e+01 2.577946e+01 9.650811e+01
         vertex 4.938893e+01 2.577830e+01 9.955956e+01
      endloop
   endfacet
   facet normal 5.735769e-01 -2.607642e-05 8.191517e-01
      outer loop
         vertex 4.938912e+01 2.877830e+01 9.955952e+01
         vertex 4.906766e+01 2.577833e+01 9.978451e+01
         vertex 4.938893e+01 2.577830e+01 9.955956e+01
      endloop
   endfacet
   facet normal 4.226187e-01 -1.536006e-05 9.063076e-01
      outer loop
         vertex 4.974457e+01 2.877828e+01 9.939377e+01
         vertex 4.938912e+01 2.877830e+01 9.955952e+01
         vertex 4.938893e+01 2.577830e+01 9.955956e+01
      endloop
   endfacet
   facet normal -6.278510e-05 -1.000000e+00 1.412264e-05
      outer loop
         vertex 3.051393e+01 2.577965e+01 1.115081e+02
         vertex 4.974438e+01 2.577833e+01 1.036224e+02
         vertex 5.012322e+01 2.577831e+01 1.037239e+02
      endloop
   endfacet
   facet normal 2.588179e-01 -2.838545e-05 -9.659261e-01
      outer loop
         vertex 4.974457e+01 2.877833e+01 1.036224e+02
         vertex 5.012341e+01 2.877831e+01 1.037239e+02
         vertex 5.012322e+01 2.577831e+01 1.037239e+02
      endloop
   endfacet
   facet normal 2.588179e-01 -2.838544e-05 -9.659261e-01
      outer loop
         vertex 4.974438e+01 2.577833e+01 1.036224e+02
         vertex 4.974457e+01 2.877833e+01 1.036224e+02
         vertex 5.012322e+01 2.577831e+01 1.037239e+02
      endloop
   endfacet
   facet normal -6.414445e-05 -1.000000e+00 1.645251e-05
      outer loop
         vertex 4.879033e+01 2.577835e+01 1.000618e+02
         vertex 3.051393e+01 2.577946e+01 9.650811e+01
         vertex 4.906766e+01 2.577833e+01 9.978451e+01
      endloop
   endfacet
   facet normal 7.071068e-01 -3.578091e-05 7.071068e-01
      outer loop
         vertex 4.906785e+01 2.877833e+01 9.978447e+01
         vertex 4.879033e+01 2.577835e+01 1.000618e+02
         vertex 4.906766e+01 2.577833e+01 9.978451e+01
      endloop
   endfacet
   facet normal 5.735758e-01 -2.589828e-05 8.191525e-01
      outer loop
         vertex 4.938912e+01 2.877830e+01 9.955952e+01
         vertex 4.906785e+01 2.877833e+01 9.978447e+01
         vertex 4.906766e+01 2.577833e+01 9.978451e+01
      endloop
   endfacet
   facet normal -6.345996e-05 -1.000000e+00 1.247688e-05
      outer loop
         vertex 3.051393e+01 2.577965e+01 1.115081e+02
         vertex 4.938893e+01 2.577835e+01 1.034567e+02
         vertex 4.974438e+01 2.577833e+01 1.036224e+02
      endloop
   endfacet
   facet normal 4.226206e-01 -3.801872e-05 -9.063067e-01
      outer loop
         vertex 4.938912e+01 2.877835e+01 1.034566e+02
         vertex 4.974457e+01 2.877833e+01 1.036224e+02
         vertex 4.974438e+01 2.577833e+01 1.036224e+02
      endloop
   endfacet
   facet normal 4.226197e-01 -3.814986e-05 -9.063071e-01
      outer loop
         vertex 4.938893e+01 2.577835e+01 1.034567e+02
         vertex 4.938912e+01 2.877835e+01 1.034566e+02
         vertex 4.974438e+01 2.577833e+01 1.036224e+02
      endloop
   endfacet
   facet normal -6.257208e-05 -1.000000e+00 8.366012e-06
      outer loop
         vertex 4.856537e+01 2.577836e+01 1.003831e+02
         vertex 3.051393e+01 2.577946e+01 9.650811e+01
         vertex 4.879033e+01 2.577835e+01 1.000618e+02
      endloop
   endfacet
   facet normal 8.191517e-01 -4.475438e-05 5.735769e-01
      outer loop
         vertex 4.879052e+01 2.877835e+01 1.000618e+02
         vertex 4.856537e+01 2.577836e+01 1.003831e+02
         vertex 4.879033e+01 2.577835e+01 1.000618e+02
      endloop
   endfacet
   facet normal 7.071080e-01 -3.600054e-05 7.071056e-01
      outer loop
         vertex 4.906785e+01 2.877833e+01 9.978447e+01
         vertex 4.879052e+01 2.877835e+01 1.000618e+02
         vertex 4.879033e+01 2.577835e+01 1.000618e+02
      endloop
   endfacet
   facet normal -6.249686e-05 -1.000000e+00 1.473469e-05
      outer loop
         vertex 3.051393e+01 2.577965e+01 1.115081e+02
         vertex 4.906766e+01 2.577837e+01 1.032317e+02
         vertex 4.938893e+01 2.577835e+01 1.034567e+02
      endloop
   endfacet
   facet normal 5.735758e-01 -4.667451e-05 -8.191525e-01
      outer loop
         vertex 4.906785e+01 2.877837e+01 1.032317e+02
         vertex 4.938912e+01 2.877835e+01 1.034566e+02
         vertex 4.938893e+01 2.577835e+01 1.034567e+02
      endloop
   endfacet
   facet normal 5.735769e-01 -4.649651e-05 -8.191517e-01
      outer loop
         vertex 4.906766e+01 2.577837e+01 1.032317e+02
         vertex 4.906785e+01 2.877837e+01 1.032317e+02
         vertex 4.938893e+01 2.577835e+01 1.034567e+02
      endloop
   endfacet
   facet normal -6.444880e-05 -1.000000e+00 1.710860e-05
      outer loop
         vertex 4.839962e+01 2.577838e+01 1.007386e+02
         vertex 3.051393e+01 2.577946e+01 9.650811e+01
         vertex 4.856537e+01 2.577836e+01 1.003831e+02
      endloop
   endfacet
   facet normal 9.063080e-01 -5.214851e-05 4.226178e-01
      outer loop
         vertex 4.856556e+01 2.877836e+01 1.003831e+02
         vertex 4.839962e+01 2.577838e+01 1.007386e+02
         vertex 4.856537e+01 2.577836e+01 1.003831e+02
      endloop
   endfacet
   facet normal 8.191517e-01 -4.475435e-05 5.735769e-01
      outer loop
         vertex 4.879052e+01 2.877835e+01 1.000618e+02
         vertex 4.856556e+01 2.877836e+01 1.003831e+02
         vertex 4.856537e+01 2.577836e+01 1.003831e+02
      endloop
   endfacet
   facet normal -6.433818e-05 -1.000000e+00 1.060688e-05
      outer loop
         vertex 3.051393e+01 2.577965e+01 1.115081e+02
         vertex 4.879033e+01 2.577838e+01 1.029544e+02
         vertex 4.906766e+01 2.577837e+01 1.032317e+02
      endloop
   endfacet
   facet normal 7.071068e-01 -5.356161e-05 -7.071068e-01
      outer loop
         vertex 4.879052e+01 2.877838e+01 1.029543e+02
         vertex 4.906785e+01 2.877837e+01 1.032317e+02
         vertex 4.906766e+01 2.577837e+01 1.032317e+02
      endloop
   endfacet
   facet normal 7.071068e-01 -5.356161e-05 -7.071068e-01
      outer loop
         vertex 4.879033e+01 2.577838e+01 1.029544e+02
         vertex 4.879052e+01 2.877838e+01 1.029543e+02
         vertex 4.906766e+01 2.577837e+01 1.032317e+02
      endloop
   endfacet
   facet normal -6.227033e-05 -1.000000e+00 7.898374e-06
      outer loop
         vertex 4.829811e+01 2.577839e+01 1.011174e+02
         vertex 3.051393e+01 2.577946e+01 9.650811e+01
         vertex 4.839962e+01 2.577838e+01 1.007386e+02
      endloop
   endfacet
   facet normal 9.659255e-01 -5.795809e-05 2.588202e-01
      outer loop
         vertex 4.839981e+01 2.877838e+01 1.007385e+02
         vertex 4.829811e+01 2.577839e+01 1.011174e+02
         vertex 4.839962e+01 2.577838e+01 1.007386e+02
      endloop
   endfacet
   facet normal 9.063080e-01 -5.214854e-05 4.226178e-01
      outer loop
         vertex 4.856556e+01 2.877836e+01 1.003831e+02
         vertex 4.839981e+01 2.877838e+01 1.007385e+02
         vertex 4.839962e+01 2.577838e+01 1.007386e+02
      endloop
   endfacet
   facet normal -6.445913e-05 -1.000000e+00 1.034846e-05
      outer loop
         vertex 3.051393e+01 2.577965e+01 1.115081e+02
         vertex 4.856537e+01 2.577839e+01 1.026331e+02
         vertex 4.879033e+01 2.577838e+01 1.029544e+02
      endloop
   endfacet
   facet normal 8.191525e-01 -5.899932e-05 -5.735758e-01
      outer loop
         vertex 4.856556e+01 2.877839e+01 1.026331e+02
         vertex 4.879052e+01 2.877838e+01 1.029543e+02
         vertex 4.879033e+01 2.577838e+01 1.029544e+02
      endloop
   endfacet
   facet normal 8.191525e-01 -5.899936e-05 -5.735758e-01
      outer loop
         vertex 4.856537e+01 2.577839e+01 1.026331e+02
         vertex 4.856556e+01 2.877839e+01 1.026331e+02
         vertex 4.879033e+01 2.577838e+01 1.029544e+02
      endloop
   endfacet
   facet normal -6.372076e-05 -1.000000e+00 1.349461e-05
      outer loop
         vertex 4.826393e+01 2.577840e+01 1.015081e+02
         vertex 3.051393e+01 2.577946e+01 9.650811e+01
         vertex 4.829811e+01 2.577839e+01 1.011174e+02
      endloop
   endfacet
   facet normal 9.961947e-01 -6.200668e-05 8.715517e-02
      outer loop
         vertex 4.829830e+01 2.877839e+01 1.011174e+02
         vertex 4.826393e+01 2.577840e+01 1.015081e+02
         vertex 4.829811e+01 2.577839e+01 1.011174e+02
      endloop
   endfacet
   facet normal 9.659255e-01 -5.795806e-05 2.588202e-01
      outer loop
         vertex 4.839981e+01 2.877838e+01 1.007385e+02
         vertex 4.829830e+01 2.877839e+01 1.011174e+02
         vertex 4.829811e+01 2.577839e+01 1.011174e+02
      endloop
   endfacet
   facet normal -6.286378e-05 -1.000000e+00 1.359335e-05
      outer loop
         vertex 3.051393e+01 2.577965e+01 1.115081e+02
         vertex 4.839962e+01 2.577840e+01 1.022777e+02
         vertex 4.856537e+01 2.577839e+01 1.026331e+02
      endloop
   endfacet
   facet normal 9.063076e-01 -6.264435e-05 -4.226187e-01
      outer loop
         vertex 4.839981e+01 2.877840e+01 1.022776e+02
         vertex 4.856556e+01 2.877839e+01 1.026331e+02
         vertex 4.856537e+01 2.577839e+01 1.026331e+02
      endloop
   endfacet
   facet normal 9.063076e-01 -6.264431e-05 -4.226187e-01
      outer loop
         vertex 4.839962e+01 2.577840e+01 1.022777e+02
         vertex 4.839981e+01 2.877840e+01 1.022776e+02
         vertex 4.856537e+01 2.577839e+01 1.026331e+02
      endloop
   endfacet
   facet normal -6.345236e-05 -1.000000e+00 1.254181e-05
      outer loop
         vertex 3.051393e+01 2.577965e+01 1.115081e+02
         vertex 3.051393e+01 2.577946e+01 9.650811e+01
         vertex 4.826393e+01 2.577840e+01 1.015081e+02
      endloop
   endfacet
   facet normal -6.208633e-05 -1.000000e+00 1.496652e-05
      outer loop
         vertex 4.829811e+01 2.577840e+01 1.018988e+02
         vertex 3.051393e+01 2.577965e+01 1.115081e+02
         vertex 4.826393e+01 2.577840e+01 1.015081e+02
      endloop
   endfacet
   facet normal 9.961947e-01 -6.417120e-05 -8.715517e-02
      outer loop
         vertex 4.826412e+01 2.877840e+01 1.015081e+02
         vertex 4.829811e+01 2.577840e+01 1.018988e+02
         vertex 4.826393e+01 2.577840e+01 1.015081e+02
      endloop
   endfacet
   facet normal 9.961947e-01 -6.200668e-05 8.715517e-02
      outer loop
         vertex 4.829830e+01 2.877839e+01 1.011174e+02
         vertex 4.826412e+01 2.877840e+01 1.015081e+02
         vertex 4.826393e+01 2.577840e+01 1.015081e+02
      endloop
   endfacet
   facet normal -6.361899e-05 -1.000000e+00 1.212999e-05
      outer loop
         vertex 3.051393e+01 2.577965e+01 1.115081e+02
         vertex 4.829811e+01 2.577840e+01 1.018988e+02
         vertex 4.839962e+01 2.577840e+01 1.022777e+02
      endloop
   endfacet
   facet normal 9.659255e-01 -6.438592e-05 -2.588202e-01
      outer loop
         vertex 4.829830e+01 2.877840e+01 1.018988e+02
         vertex 4.839981e+01 2.877840e+01 1.022776e+02
         vertex 4.839962e+01 2.577840e+01 1.022777e+02
      endloop
   endfacet
   facet normal 9.659255e-01 -6.438596e-05 -2.588202e-01
      outer loop
         vertex 4.829811e+01 2.577840e+01 1.018988e+02
         vertex 4.829830e+01 2.877840e+01 1.018988e+02
         vertex 4.839962e+01 2.577840e+01 1.022777e+02
      endloop
   endfacet
   facet normal 9.961947e-01 -6.417124e-05 -8.715517e-02
      outer loop
         vertex 4.826412e+01 2.877840e+01 1.015081e+02
         vertex 4.829830e+01 2.877840e+01 1.018988e+02
         vertex 4.829811e+01 2.577840e+01 1.018988e+02
      endloop
   endfacet
   facet normal -1.000000e+00 6.332993e-05 2.120366e-07
      outer loop
         vertex 3.051517e+01 4.539304e+01 1.065079e+02
         vertex 3.051412e+01 2.877946e+01 9.650808e+01
         vertex 3.051393e+01 2.577946e+01 9.650811e+01
      endloop
   endfacet
   facet normal -1.000000e+00 6.343844e-05 -7.956329e-10
      outer loop
         vertex 3.051393e+01 2.577965e+01 1.115081e+02
         vertex 3.051517e+01 4.539304e+01 1.065079e+02
         vertex 3.051393e+01 2.577946e+01 9.650811e+01
      endloop
   endfacet
   facet normal -7.864077e-10 -1.241763e-05 -1.000000e+00
      outer loop
         vertex 3.051412e+01 2.877946e+01 9.650808e+01
         vertex 3.351412e+01 2.877927e+01 9.650808e+01
         vertex 3.051393e+01 2.577946e+01 9.650811e+01
      endloop
   endfacet
   facet normal -1.000000e+00 6.341092e-05 -1.087192e-07
      outer loop
         vertex 3.051539e+01 4.877965e+01 1.115078e+02
         vertex 3.051517e+01 4.539304e+01 1.065079e+02
         vertex 3.051393e+01 2.577965e+01 1.115081e+02
      endloop
   endfacet
   facet normal 3.297912e-05 5.156952e-01 -8.567721e-01
      outer loop
         vertex 8.751412e+01 2.877585e+01 9.650808e+01
         vertex 8.751517e+01 4.538943e+01 1.065079e+02
         vertex 9.051412e+01 2.877565e+01 9.650808e+01
      endloop
   endfacet
   facet normal 3.265894e-05 5.156952e-01 -8.567721e-01
      outer loop
         vertex 8.751517e+01 4.538943e+01 1.065079e+02
         vertex 9.051517e+01 4.538924e+01 1.065079e+02
         vertex 9.051412e+01 2.877565e+01 9.650808e+01
      endloop
   endfacet
   facet normal 6.399753e-05 1.000000e+00 -1.002527e-05
      outer loop
         vertex 7.223772e+01 2.877686e+01 1.000618e+02
         vertex 7.246268e+01 2.877685e+01 1.003831e+02
         vertex 8.751412e+01 2.877585e+01 9.650808e+01
      endloop
   endfacet
   facet normal 6.305587e-05 1.000000e+00 -1.368289e-05
      outer loop
         vertex 7.246268e+01 2.877685e+01 1.003831e+02
         vertex 7.262843e+01 2.877684e+01 1.007385e+02
         vertex 8.751412e+01 2.877585e+01 9.650808e+01
      endloop
   endfacet
   facet normal 6.299431e-05 1.000000e+00 -1.490344e-05
      outer loop
         vertex 7.090483e+01 2.877693e+01 9.929226e+01
         vertex 7.128366e+01 2.877691e+01 9.939377e+01
         vertex 8.751412e+01 2.877585e+01 9.650808e+01
      endloop
   endfacet
   facet normal 6.343522e-05 1.000000e+00 -1.242354e-05
      outer loop
         vertex 7.128366e+01 2.877691e+01 9.939377e+01
         vertex 7.163912e+01 2.877689e+01 9.955952e+01
         vertex 8.751412e+01 2.877585e+01 9.650808e+01
      endloop
   endfacet
   facet normal 6.413327e-05 1.000000e+00 -8.791987e-06
      outer loop
         vertex 7.163912e+01 2.877689e+01 9.955952e+01
         vertex 7.196039e+01 2.877687e+01 9.978447e+01
         vertex 8.751412e+01 2.877585e+01 9.650808e+01
      endloop
   endfacet
   facet normal 6.268451e-05 1.000000e+00 -1.566956e-05
      outer loop
         vertex 7.196039e+01 2.877687e+01 9.978447e+01
         vertex 7.223772e+01 2.877686e+01 1.000618e+02
         vertex 8.751412e+01 2.877585e+01 9.650808e+01
      endloop
   endfacet
   facet normal 6.343342e-05 1.000000e+00 -1.254377e-05
      outer loop
         vertex 3.351412e+01 2.877927e+01 9.650808e+01
         vertex 7.012341e+01 2.877698e+01 9.929226e+01
         vertex 8.751412e+01 2.877585e+01 9.650808e+01
      endloop
   endfacet
   facet normal 6.831096e-05 1.000000e+00 1.792259e-05
      outer loop
         vertex 7.012341e+01 2.877698e+01 9.929226e+01
         vertex 7.051412e+01 2.877696e+01 9.925808e+01
         vertex 8.751412e+01 2.877585e+01 9.650808e+01
      endloop
   endfacet
   facet normal 6.318168e-05 1.000000e+00 -1.378570e-05
      outer loop
         vertex 7.051412e+01 2.877696e+01 9.925808e+01
         vertex 7.090483e+01 2.877693e+01 9.929226e+01
         vertex 8.751412e+01 2.877585e+01 9.650808e+01
      endloop
   endfacet
   facet normal 6.350582e-05 1.000000e+00 -1.209966e-05
      outer loop
         vertex 7.262843e+01 2.877684e+01 1.007385e+02
         vertex 7.272994e+01 2.877684e+01 1.011174e+02
         vertex 8.751412e+01 2.877585e+01 9.650808e+01
      endloop
   endfacet
   facet normal 6.404492e-05 1.000000e+00 -1.037052e-05
      outer loop
         vertex 7.272994e+01 2.877684e+01 1.011174e+02
         vertex 7.276412e+01 2.877684e+01 1.015081e+02
         vertex 8.751412e+01 2.877585e+01 9.650808e+01
      endloop
   endfacet
   facet normal 6.339307e-05 1.000000e+00 -1.229346e-05
      outer loop
         vertex 7.276412e+01 2.877684e+01 1.015081e+02
         vertex 8.751412e+01 2.877597e+01 1.065081e+02
         vertex 8.751412e+01 2.877585e+01 9.650808e+01
      endloop
   endfacet
   facet normal -1.000000e+00 6.345803e-05 -7.801187e-10
      outer loop
         vertex 8.751412e+01 2.877597e+01 1.065081e+02
         vertex 8.751517e+01 4.538943e+01 1.065079e+02
         vertex 8.751412e+01 2.877585e+01 9.650808e+01
      endloop
   endfacet
   facet normal 6.370874e-05 1.000000e+00 -1.336780e-05
      outer loop
         vertex 7.246268e+01 2.877688e+01 1.026331e+02
         vertex 7.223772e+01 2.877690e+01 1.029543e+02
         vertex 8.751412e+01 2.877597e+01 1.065081e+02
      endloop
   endfacet
   facet normal 6.344343e-05 1.000000e+00 -1.233728e-05
      outer loop
         vertex 7.262843e+01 2.877686e+01 1.022776e+02
         vertex 7.246268e+01 2.877688e+01 1.026331e+02
         vertex 8.751412e+01 2.877597e+01 1.065081e+02
      endloop
   endfacet
   facet normal 6.379795e-05 1.000000e+00 -1.348785e-05
      outer loop
         vertex 7.276412e+01 2.877684e+01 1.015081e+02
         vertex 7.272994e+01 2.877685e+01 1.018988e+02
         vertex 8.751412e+01 2.877597e+01 1.065081e+02
      endloop
   endfacet
   facet normal 6.348661e-05 1.000000e+00 -1.248922e-05
      outer loop
         vertex 7.272994e+01 2.877685e+01 1.018988e+02
         vertex 7.262843e+01 2.877686e+01 1.022776e+02
         vertex 8.751412e+01 2.877597e+01 1.065081e+02
      endloop
   endfacet
   facet normal 6.310557e-05 1.000000e+00 -1.077497e-05
      outer loop
         vertex 7.223772e+01 2.877690e+01 1.029543e+02
         vertex 7.196039e+01 2.877692e+01 1.032317e+02
         vertex 8.751412e+01 2.877597e+01 1.065081e+02
      endloop
   endfacet
   facet normal 6.419713e-05 1.000000e+00 -1.595681e-05
      outer loop
         vertex 7.196039e+01 2.877692e+01 1.032317e+02
         vertex 7.163912e+01 2.877694e+01 1.034566e+02
         vertex 8.751412e+01 2.877597e+01 1.065081e+02
      endloop
   endfacet
   facet normal 6.317097e-05 1.000000e+00 -1.061828e-05
      outer loop
         vertex 7.163912e+01 2.877694e+01 1.034566e+02
         vertex 7.128366e+01 2.877696e+01 1.036224e+02
         vertex 8.751412e+01 2.877597e+01 1.065081e+02
      endloop
   endfacet
   facet normal 6.429513e-05 1.000000e+00 -1.694108e-05
      outer loop
         vertex 7.128366e+01 2.877696e+01 1.036224e+02
         vertex 7.090483e+01 2.877699e+01 1.037239e+02
         vertex 8.751412e+01 2.877597e+01 1.065081e+02
      endloop
   endfacet
   facet normal 6.179718e-05 1.000000e+00 -2.039319e-06
      outer loop
         vertex 7.090483e+01 2.877699e+01 1.037239e+02
         vertex 7.051412e+01 2.877701e+01 1.037581e+02
         vertex 8.751412e+01 2.877597e+01 1.065081e+02
      endloop
   endfacet
   facet normal 6.346791e-05 1.000000e+00 -1.236747e-05
      outer loop
         vertex 7.051412e+01 2.877701e+01 1.037581e+02
         vertex 3.351412e+01 2.877940e+01 1.065081e+02
         vertex 8.751412e+01 2.877597e+01 1.065081e+02
      endloop
   endfacet
   facet normal -7.898549e-10 -1.244495e-05 -1.000000e+00
      outer loop
         vertex 3.351412e+01 2.877940e+01 1.065081e+02
         vertex 8.751517e+01 4.538943e+01 1.065079e+02
         vertex 8.751412e+01 2.877597e+01 1.065081e+02
      endloop
   endfacet
   facet normal 6.279742e-05 1.000000e+00 -4.181018e-06
      outer loop
         vertex 3.351412e+01 2.877927e+01 9.650808e+01
         vertex 6.974457e+01 2.877701e+01 9.939377e+01
         vertex 7.012341e+01 2.877698e+01 9.929226e+01
      endloop
   endfacet
   facet normal 6.328981e-05 1.000000e+00 -1.036313e-05
      outer loop
         vertex 3.351412e+01 2.877927e+01 9.650808e+01
         vertex 6.938912e+01 2.877703e+01 9.955952e+01
         vertex 6.974457e+01 2.877701e+01 9.939377e+01
      endloop
   endfacet
   facet normal 6.362797e-05 1.000000e+00 -1.696877e-05
      outer loop
         vertex 5.223772e+01 2.877816e+01 1.029543e+02
         vertex 5.196039e+01 2.877819e+01 1.032317e+02
         vertex 7.051412e+01 2.877701e+01 1.037581e+02
      endloop
   endfacet
   facet normal 6.339678e-05 1.000000e+00 -8.820082e-06
      outer loop
         vertex 5.196039e+01 2.877819e+01 1.032317e+02
         vertex 5.163912e+01 2.877821e+01 1.034566e+02
         vertex 7.051412e+01 2.877701e+01 1.037581e+02
      endloop
   endfacet
   facet normal 6.341707e-05 1.000000e+00 -1.009017e-05
      outer loop
         vertex 5.163912e+01 2.877821e+01 1.034566e+02
         vertex 5.128366e+01 2.877823e+01 1.036224e+02
         vertex 7.051412e+01 2.877701e+01 1.037581e+02
      endloop
   endfacet
   facet normal 6.348670e-05 1.000000e+00 -1.995822e-05
      outer loop
         vertex 5.128366e+01 2.877823e+01 1.036224e+02
         vertex 5.090483e+01 2.877826e+01 1.037239e+02
         vertex 7.051412e+01 2.877701e+01 1.037581e+02
      endloop
   endfacet
   facet normal 6.342307e-05 1.000000e+00 1.654527e-05
      outer loop
         vertex 5.090483e+01 2.877826e+01 1.037239e+02
         vertex 5.051412e+01 2.877828e+01 1.037581e+02
         vertex 7.051412e+01 2.877701e+01 1.037581e+02
      endloop
   endfacet
   facet normal 6.322942e-05 1.000000e+00 -7.905716e-06
      outer loop
         vertex 5.246268e+01 2.877815e+01 1.026331e+02
         vertex 5.223772e+01 2.877816e+01 1.029543e+02
         vertex 7.051412e+01 2.877701e+01 1.037581e+02
      endloop
   endfacet
   facet normal 6.462175e-05 1.000000e+00 -3.024681e-05
      outer loop
         vertex 7.012341e+01 2.877704e+01 1.037239e+02
         vertex 5.246268e+01 2.877815e+01 1.026331e+02
         vertex 7.051412e+01 2.877701e+01 1.037581e+02
      endloop
   endfacet
   facet normal 6.342307e-05 1.000000e+00 -1.297081e-05
      outer loop
         vertex 5.051412e+01 2.877828e+01 1.037581e+02
         vertex 3.351412e+01 2.877940e+01 1.065081e+02
         vertex 7.051412e+01 2.877701e+01 1.037581e+02
      endloop
   endfacet
   facet normal 6.381236e-05 1.000000e+00 -1.650657e-05
      outer loop
         vertex 3.351412e+01 2.877927e+01 9.650808e+01
         vertex 6.906785e+01 2.877706e+01 9.978447e+01
         vertex 6.938912e+01 2.877703e+01 9.955952e+01
      endloop
   endfacet
   facet normal 6.387770e-05 1.000000e+00 -1.820030e-05
      outer loop
         vertex 6.974457e+01 2.877706e+01 1.036224e+02
         vertex 5.246268e+01 2.877815e+01 1.026331e+02
         vertex 7.012341e+01 2.877704e+01 1.037239e+02
      endloop
   endfacet
   facet normal 6.326908e-05 1.000000e+00 -1.061121e-05
      outer loop
         vertex 3.351412e+01 2.877927e+01 9.650808e+01
         vertex 6.879052e+01 2.877708e+01 1.000618e+02
         vertex 6.906785e+01 2.877706e+01 9.978447e+01
      endloop
   endfacet
   facet normal 6.356267e-05 1.000000e+00 -1.269714e-05
      outer loop
         vertex 6.938912e+01 2.877708e+01 1.034566e+02
         vertex 5.246268e+01 2.877815e+01 1.026331e+02
         vertex 6.974457e+01 2.877706e+01 1.036224e+02
      endloop
   endfacet
   facet normal 6.355745e-05 1.000000e+00 -1.347377e-05
      outer loop
         vertex 3.351412e+01 2.877927e+01 9.650808e+01
         vertex 6.856556e+01 2.877710e+01 1.003831e+02
         vertex 6.879052e+01 2.877708e+01 1.000618e+02
      endloop
   endfacet
   facet normal 6.331585e-05 1.000000e+00 -7.624328e-06
      outer loop
         vertex 6.906785e+01 2.877710e+01 1.032317e+02
         vertex 5.246268e+01 2.877815e+01 1.026331e+02
         vertex 6.938912e+01 2.877708e+01 1.034566e+02
      endloop
   endfacet
   facet normal 6.343238e-05 1.000000e+00 -1.234240e-05
      outer loop
         vertex 3.351412e+01 2.877927e+01 9.650808e+01
         vertex 6.839981e+01 2.877711e+01 1.007385e+02
         vertex 6.856556e+01 2.877710e+01 1.003831e+02
      endloop
   endfacet
   facet normal 6.367083e-05 1.000000e+00 -1.747142e-05
      outer loop
         vertex 5.262843e+01 2.877813e+01 1.022776e+02
         vertex 5.246268e+01 2.877815e+01 1.026331e+02
         vertex 6.906785e+01 2.877710e+01 1.032317e+02
      endloop
   endfacet
   facet normal 6.362060e-05 1.000000e+00 -1.660592e-05
      outer loop
         vertex 6.879052e+01 2.877711e+01 1.029543e+02
         vertex 5.262843e+01 2.877813e+01 1.022776e+02
         vertex 6.906785e+01 2.877710e+01 1.032317e+02
      endloop
   endfacet
   facet normal 6.345135e-05 1.000000e+00 -1.249882e-05
      outer loop
         vertex 3.351412e+01 2.877927e+01 9.650808e+01
         vertex 6.829830e+01 2.877712e+01 1.011174e+02
         vertex 6.839981e+01 2.877711e+01 1.007385e+02
      endloop
   endfacet
   facet normal 6.332535e-05 1.000000e+00 -9.554578e-06
      outer loop
         vertex 6.856556e+01 2.877712e+01 1.026331e+02
         vertex 5.262843e+01 2.877813e+01 1.022776e+02
         vertex 6.879052e+01 2.877711e+01 1.029543e+02
      endloop
   endfacet
   facet normal 6.331503e-05 1.000000e+00 -1.147012e-05
      outer loop
         vertex 3.351412e+01 2.877927e+01 9.650808e+01
         vertex 5.090483e+01 2.877820e+01 9.929226e+01
         vertex 6.829830e+01 2.877712e+01 1.011174e+02
      endloop
   endfacet
   facet normal 6.352921e-05 1.000000e+00 -1.351129e-05
      outer loop
         vertex 5.090483e+01 2.877820e+01 9.929226e+01
         vertex 6.826412e+01 2.877713e+01 1.015081e+02
         vertex 6.829830e+01 2.877712e+01 1.011174e+02
      endloop
   endfacet
   facet normal 6.342123e-05 1.000000e+00 -1.385329e-05
      outer loop
         vertex 6.839981e+01 2.877713e+01 1.022776e+02
         vertex 5.262843e+01 2.877813e+01 1.022776e+02
         vertex 6.856556e+01 2.877712e+01 1.026331e+02
      endloop
   endfacet
   facet normal 6.435522e-05 1.000000e+00 -1.998244e-05
      outer loop
         vertex 5.090483e+01 2.877820e+01 9.929226e+01
         vertex 5.128366e+01 2.877818e+01 9.939377e+01
         vertex 6.826412e+01 2.877713e+01 1.015081e+02
      endloop
   endfacet
   facet normal 6.340637e-05 1.000000e+00 -1.236203e-05
      outer loop
         vertex 5.128366e+01 2.877818e+01 9.939377e+01
         vertex 5.163912e+01 2.877816e+01 9.955952e+01
         vertex 6.826412e+01 2.877713e+01 1.015081e+02
      endloop
   endfacet
   facet normal 6.392322e-05 1.000000e+00 -1.677173e-05
      outer loop
         vertex 5.163912e+01 2.877816e+01 9.955952e+01
         vertex 5.196039e+01 2.877814e+01 9.978447e+01
         vertex 6.826412e+01 2.877713e+01 1.015081e+02
      endloop
   endfacet
   facet normal 6.314540e-05 1.000000e+00 -9.414277e-06
      outer loop
         vertex 5.196039e+01 2.877814e+01 9.978447e+01
         vertex 5.223772e+01 2.877813e+01 1.000618e+02
         vertex 6.826412e+01 2.877713e+01 1.015081e+02
      endloop
   endfacet
   facet normal 6.314678e-05 1.000000e+00 -9.429568e-06
      outer loop
         vertex 5.223772e+01 2.877813e+01 1.000618e+02
         vertex 5.246268e+01 2.877812e+01 1.003831e+02
         vertex 6.826412e+01 2.877713e+01 1.015081e+02
      endloop
   endfacet
   facet normal 6.346312e-05 1.000000e+00 -1.387279e-05
      outer loop
         vertex 5.246268e+01 2.877812e+01 1.003831e+02
         vertex 5.262843e+01 2.877811e+01 1.007385e+02
         vertex 6.826412e+01 2.877713e+01 1.015081e+02
      endloop
   endfacet
   facet normal 6.337411e-05 1.000000e+00 -1.206422e-05
      outer loop
         vertex 5.262843e+01 2.877811e+01 1.007385e+02
         vertex 5.272994e+01 2.877811e+01 1.011174e+02
         vertex 6.826412e+01 2.877713e+01 1.015081e+02
      endloop
   endfacet
   facet normal 6.345011e-05 1.000000e+00 -1.508591e-05
      outer loop
         vertex 5.272994e+01 2.877811e+01 1.011174e+02
         vertex 5.276412e+01 2.877811e+01 1.015081e+02
         vertex 6.826412e+01 2.877713e+01 1.015081e+02
      endloop
   endfacet
   facet normal 6.345011e-05 1.000000e+00 -1.031856e-05
      outer loop
         vertex 5.276412e+01 2.877811e+01 1.015081e+02
         vertex 6.829830e+01 2.877713e+01 1.018988e+02
         vertex 6.826412e+01 2.877713e+01 1.015081e+02
      endloop
   endfacet
   facet normal 6.342123e-05 1.000000e+00 -1.207684e-05
      outer loop
         vertex 6.829830e+01 2.877713e+01 1.018988e+02
         vertex 5.262843e+01 2.877813e+01 1.022776e+02
         vertex 6.839981e+01 2.877713e+01 1.022776e+02
      endloop
   endfacet
   facet normal 6.341076e-05 1.000000e+00 -8.754298e-06
      outer loop
         vertex 5.276412e+01 2.877811e+01 1.015081e+02
         vertex 5.272994e+01 2.877812e+01 1.018988e+02
         vertex 6.829830e+01 2.877713e+01 1.018988e+02
      endloop
   endfacet
   facet normal 6.341076e-05 1.000000e+00 -1.250970e-05
      outer loop
         vertex 5.272994e+01 2.877812e+01 1.018988e+02
         vertex 5.262843e+01 2.877813e+01 1.022776e+02
         vertex 6.829830e+01 2.877713e+01 1.018988e+02
      endloop
   endfacet
   facet normal 6.257430e-05 1.000000e+00 -6.843307e-06
      outer loop
         vertex 3.351412e+01 2.877927e+01 9.650808e+01
         vertex 5.051412e+01 2.877823e+01 9.925808e+01
         vertex 5.090483e+01 2.877820e+01 9.929226e+01
      endloop
   endfacet
   facet normal 6.489118e-05 1.000000e+00 -2.116586e-05
      outer loop
         vertex 3.351412e+01 2.877927e+01 9.650808e+01
         vertex 5.012341e+01 2.877825e+01 9.929226e+01
         vertex 5.051412e+01 2.877823e+01 9.925808e+01
      endloop
   endfacet
   facet normal 6.233398e-05 1.000000e+00 -5.910615e-06
      outer loop
         vertex 3.351412e+01 2.877927e+01 9.650808e+01
         vertex 4.974457e+01 2.877828e+01 9.939377e+01
         vertex 5.012341e+01 2.877825e+01 9.929226e+01
      endloop
   endfacet
   facet normal 6.461745e-05 1.000000e+00 -1.875395e-05
      outer loop
         vertex 3.351412e+01 2.877927e+01 9.650808e+01
         vertex 4.938912e+01 2.877830e+01 9.955952e+01
         vertex 4.974457e+01 2.877828e+01 9.939377e+01
      endloop
   endfacet
   facet normal 6.322011e-05 1.000000e+00 -1.422543e-05
      outer loop
         vertex 5.012341e+01 2.877831e+01 1.037239e+02
         vertex 3.351412e+01 2.877940e+01 1.065081e+02
         vertex 5.051412e+01 2.877828e+01 1.037581e+02
      endloop
   endfacet
   facet normal 6.285631e-05 1.000000e+00 -9.591690e-06
      outer loop
         vertex 3.351412e+01 2.877927e+01 9.650808e+01
         vertex 4.906785e+01 2.877833e+01 9.978447e+01
         vertex 4.938912e+01 2.877830e+01 9.955952e+01
      endloop
   endfacet
   facet normal 6.495547e-05 1.000000e+00 -3.872987e-06
      outer loop
         vertex 4.974457e+01 2.877833e+01 1.036224e+02
         vertex 3.351412e+01 2.877940e+01 1.065081e+02
         vertex 5.012341e+01 2.877831e+01 1.037239e+02
      endloop
   endfacet
   facet normal 6.310557e-05 1.000000e+00 -1.077494e-05
      outer loop
         vertex 3.351412e+01 2.877927e+01 9.650808e+01
         vertex 4.879052e+01 2.877835e+01 1.000618e+02
         vertex 4.906785e+01 2.877833e+01 9.978447e+01
      endloop
   endfacet
   facet normal 6.343524e-05 1.000000e+00 -1.242350e-05
      outer loop
         vertex 4.938912e+01 2.877835e+01 1.034566e+02
         vertex 3.351412e+01 2.877940e+01 1.065081e+02
         vertex 4.974457e+01 2.877833e+01 1.036224e+02
      endloop
   endfacet
   facet normal 6.370875e-05 1.000000e+00 -1.336783e-05
      outer loop
         vertex 3.351412e+01 2.877927e+01 9.650808e+01
         vertex 4.856556e+01 2.877836e+01 1.003831e+02
         vertex 4.879052e+01 2.877835e+01 1.000618e+02
      endloop
   endfacet
   facet normal 6.288452e-05 1.000000e+00 -1.528858e-05
      outer loop
         vertex 4.906785e+01 2.877837e+01 1.032317e+02
         vertex 3.351412e+01 2.877940e+01 1.065081e+02
         vertex 4.938912e+01 2.877835e+01 1.034566e+02
      endloop
   endfacet
   facet normal 6.344342e-05 1.000000e+00 -1.233725e-05
      outer loop
         vertex 3.351412e+01 2.877927e+01 9.650808e+01
         vertex 4.839981e+01 2.877838e+01 1.007385e+02
         vertex 4.856556e+01 2.877836e+01 1.003831e+02
      endloop
   endfacet
   facet normal 6.395206e-05 1.000000e+00 -1.022076e-05
      outer loop
         vertex 4.879052e+01 2.877838e+01 1.029543e+02
         vertex 3.351412e+01 2.877940e+01 1.065081e+02
         vertex 4.906785e+01 2.877837e+01 1.032317e+02
      endloop
   endfacet
   facet normal 6.348661e-05 1.000000e+00 -1.248922e-05
      outer loop
         vertex 3.351412e+01 2.877927e+01 9.650808e+01
         vertex 4.829830e+01 2.877839e+01 1.011174e+02
         vertex 4.839981e+01 2.877838e+01 1.007385e+02
      endloop
   endfacet
   facet normal 6.283774e-05 1.000000e+00 -1.501086e-05
      outer loop
         vertex 4.856556e+01 2.877839e+01 1.026331e+02
         vertex 3.351412e+01 2.877940e+01 1.065081e+02
         vertex 4.879052e+01 2.877838e+01 1.029543e+02
      endloop
   endfacet
   facet normal 6.379796e-05 1.000000e+00 -1.348785e-05
      outer loop
         vertex 3.351412e+01 2.877927e+01 9.650808e+01
         vertex 4.826412e+01 2.877840e+01 1.015081e+02
         vertex 4.829830e+01 2.877839e+01 1.011174e+02
      endloop
   endfacet
   facet normal 6.437084e-05 1.000000e+00 -9.055920e-06
      outer loop
         vertex 4.839981e+01 2.877840e+01 1.022776e+02
         vertex 3.351412e+01 2.877940e+01 1.065081e+02
         vertex 4.856556e+01 2.877839e+01 1.026331e+02
      endloop
   endfacet
   facet normal 6.345622e-05 1.000000e+00 -1.247972e-05
      outer loop
         vertex 3.351412e+01 2.877927e+01 9.650808e+01
         vertex 3.351412e+01 2.877940e+01 1.065081e+02
         vertex 4.826412e+01 2.877840e+01 1.015081e+02
      endloop
   endfacet
   facet normal 6.416757e-05 1.000000e+00 -1.038125e-05
      outer loop
         vertex 3.351412e+01 2.877940e+01 1.065081e+02
         vertex 4.829830e+01 2.877840e+01 1.018988e+02
         vertex 4.826412e+01 2.877840e+01 1.015081e+02
      endloop
   endfacet
   facet normal 6.220738e-05 1.000000e+00 -1.666849e-05
      outer loop
         vertex 3.351412e+01 2.877940e+01 1.065081e+02
         vertex 4.839981e+01 2.877840e+01 1.022776e+02
         vertex 4.829830e+01 2.877840e+01 1.018988e+02
      endloop
   endfacet
   facet normal 3.265894e-05 5.156952e-01 -8.567721e-01
      outer loop
         vertex 3.051517e+01 4.539304e+01 1.065079e+02
         vertex 3.351517e+01 4.539285e+01 1.065079e+02
         vertex 3.351412e+01 2.877927e+01 9.650808e+01
      endloop
   endfacet
   facet normal 3.265894e-05 5.156952e-01 -8.567721e-01
      outer loop
         vertex 3.051412e+01 2.877946e+01 9.650808e+01
         vertex 3.051517e+01 4.539304e+01 1.065079e+02
         vertex 3.351412e+01 2.877927e+01 9.650808e+01
      endloop
   endfacet
   facet normal 1.000000e+00 -6.345803e-05 7.919387e-10
      outer loop
         vertex 3.351517e+01 4.539285e+01 1.065079e+02
         vertex 3.351412e+01 2.877940e+01 1.065081e+02
         vertex 3.351412e+01 2.877927e+01 9.650808e+01
      endloop
   endfacet
   facet normal -7.898549e-10 -1.244495e-05 -1.000000e+00
      outer loop
         vertex 3.351517e+01 4.539285e+01 1.065079e+02
         vertex 8.751517e+01 4.538943e+01 1.065079e+02
         vertex 3.351412e+01 2.877940e+01 1.065081e+02
      endloop
   endfacet
   facet normal 7.920943e-10 1.247972e-05 1.000000e+00
      outer loop
         vertex 3.401539e+01 4.877939e+01 1.082078e+02
         vertex 3.401475e+01 3.877939e+01 1.082080e+02
         vertex 8.701475e+01 3.877602e+01 1.082080e+02
      endloop
   endfacet
   facet normal 7.920942e-10 1.247972e-05 1.000000e+00
      outer loop
         vertex 8.701539e+01 4.877602e+01 1.082078e+02
         vertex 3.401539e+01 4.877939e+01 1.082078e+02
         vertex 8.701475e+01 3.877602e+01 1.082080e+02
      endloop
   endfacet
   facet normal -1.000000e+00 6.351619e-05 -8.873104e-10
      outer loop
         vertex 8.701475e+01 3.877604e+01 1.098080e+02
         vertex 8.701539e+01 4.877602e+01 1.082078e+02
         vertex 8.701475e+01 3.877602e+01 1.082080e+02
      endloop
   endfacet
   facet normal 6.347051e-05 1.000000e+00 -1.396983e-05
      outer loop
         vertex 3.401475e+01 3.877941e+01 1.098080e+02
         vertex 8.701475e+01 3.877604e+01 1.098080e+02
         vertex 8.701475e+01 3.877602e+01 1.082080e+02
      endloop
   endfacet
   facet normal 6.347051e-05 1.000000e+00 -1.396983e-05
      outer loop
         vertex 3.401475e+01 3.877939e+01 1.082080e+02
         vertex 3.401475e+01 3.877941e+01 1.098080e+02
         vertex 8.701475e+01 3.877602e+01 1.082080e+02
      endloop
   endfacet
   facet normal -1.000000e+00 6.351621e-05 -7.394256e-10
      outer loop
         vertex 8.701539e+01 4.877604e+01 1.098078e+02
         vertex 8.701539e+01 4.877602e+01 1.082078e+02
         vertex 8.701475e+01 3.877604e+01 1.098080e+02
      endloop
   endfacet
   facet normal -7.920945e-10 -1.247973e-05 -1.000000e+00
      outer loop
         vertex 3.401475e+01 3.877941e+01 1.098080e+02
         vertex 8.701539e+01 4.877604e+01 1.098078e+02
         vertex 8.701475e+01 3.877604e+01 1.098080e+02
      endloop
   endfacet
   facet normal 1.000000e+00 -6.332995e-05 8.847086e-10
      outer loop
         vertex 3.401539e+01 4.877941e+01 1.098078e+02
         vertex 3.401475e+01 3.877941e+01 1.098080e+02
         vertex 3.401475e+01 3.877939e+01 1.082080e+02
      endloop
   endfacet
   facet normal 1.000000e+00 -6.332992e-05 7.372569e-10
      outer loop
         vertex 3.401539e+01 4.877939e+01 1.082078e+02
         vertex 3.401539e+01 4.877941e+01 1.098078e+02
         vertex 3.401475e+01 3.877939e+01 1.082080e+02
      endloop
   endfacet
   facet normal -7.920945e-10 -1.247973e-05 -1.000000e+00
      outer loop
         vertex 3.401539e+01 4.877941e+01 1.098078e+02
         vertex 8.701539e+01 4.877604e+01 1.098078e+02
         vertex 3.401475e+01 3.877941e+01 1.098080e+02
      endloop
   endfacet
   facet normal 1.000000e+00 -6.325152e-05 7.540171e-10
      outer loop
         vertex 9.051539e+01 4.877578e+01 1.065078e+02
         vertex 9.051539e+01 4.877584e+01 1.115078e+02
         vertex 9.051517e+01 4.538924e+01 1.065079e+02
      endloop
   endfacet
   facet normal -7.663106e-10 -1.210029e-05 -1.000000e+00
      outer loop
         vertex 8.751517e+01 4.538943e+01 1.065079e+02
         vertex 9.051539e+01 4.877578e+01 1.065078e+02
         vertex 9.051517e+01 4.538924e+01 1.065079e+02
      endloop
   endfacet
   facet normal -7.679801e-10 -1.210029e-05 -1.000000e+00
      outer loop
         vertex 3.351517e+01 4.539285e+01 1.065079e+02
         vertex 9.051539e+01 4.877578e+01 1.065078e+02
         vertex 8.751517e+01 4.538943e+01 1.065079e+02
      endloop
   endfacet
   facet normal -7.663106e-10 -1.210029e-05 -1.000000e+00
      outer loop
         vertex 3.051517e+01 4.539304e+01 1.065079e+02
         vertex 3.051539e+01 4.877959e+01 1.065078e+02
         vertex 3.351517e+01 4.539285e+01 1.065079e+02
      endloop
   endfacet
   facet normal -7.678133e-10 -1.210029e-05 -1.000000e+00
      outer loop
         vertex 3.051539e+01 4.877959e+01 1.065078e+02
         vertex 9.051539e+01 4.877578e+01 1.065078e+02
         vertex 3.351517e+01 4.539285e+01 1.065079e+02
      endloop
   endfacet
   facet normal -1.000000e+00 6.325152e-05 -7.540171e-10
      outer loop
         vertex 3.051539e+01 4.877965e+01 1.115078e+02
         vertex 3.051539e+01 4.877959e+01 1.065078e+02
         vertex 3.051517e+01 4.539304e+01 1.065079e+02
      endloop
   endfacet
   facet normal 6.339381e-05 1.000000e+00 -1.192093e-05
      outer loop
         vertex 8.701539e+01 4.877602e+01 1.082078e+02
         vertex 9.051539e+01 4.877584e+01 1.115078e+02
         vertex 9.051539e+01 4.877578e+01 1.065078e+02
      endloop
   endfacet
   facet normal 6.347051e-05 1.000000e+00 -1.176301e-05
      outer loop
         vertex 3.401539e+01 4.877939e+01 1.082078e+02
         vertex 8.701539e+01 4.877602e+01 1.082078e+02
         vertex 9.051539e+01 4.877578e+01 1.065078e+02
      endloop
   endfacet
   facet normal 6.345411e-05 1.000000e+00 -1.230806e-05
      outer loop
         vertex 3.051539e+01 4.877959e+01 1.065078e+02
         vertex 3.401539e+01 4.877939e+01 1.082078e+02
         vertex 9.051539e+01 4.877578e+01 1.065078e+02
      endloop
   endfacet
   facet normal 6.313037e-05 1.000000e+00 -1.164152e-05
      outer loop
         vertex 8.701539e+01 4.877602e+01 1.082078e+02
         vertex 8.701539e+01 4.877604e+01 1.098078e+02
         vertex 9.051539e+01 4.877584e+01 1.115078e+02
      endloop
   endfacet
   facet normal 6.345411e-05 1.000000e+00 -1.230806e-05
      outer loop
         vertex 8.701539e+01 4.877604e+01 1.098078e+02
         vertex 3.051539e+01 4.877965e+01 1.115078e+02
         vertex 9.051539e+01 4.877584e+01 1.115078e+02
      endloop
   endfacet
   facet normal 6.347051e-05 1.000000e+00 -1.176301e-05
      outer loop
         vertex 3.401539e+01 4.877941e+01 1.098078e+02
         vertex 3.051539e+01 4.877965e+01 1.115078e+02
         vertex 8.701539e+01 4.877604e+01 1.098078e+02
      endloop
   endfacet
   facet normal 6.313037e-05 1.000000e+00 -1.164152e-05
      outer loop
         vertex 3.051539e+01 4.877959e+01 1.065078e+02
         vertex 3.401539e+01 4.877941e+01 1.098078e+02
         vertex 3.401539e+01 4.877939e+01 1.082078e+02
      endloop
   endfacet
   facet normal 6.339381e-05 1.000000e+00 -1.192093e-05
      outer loop
         vertex 3.051539e+01 4.877959e+01 1.065078e+02
         vertex 3.051539e+01 4.877965e+01 1.115078e+02
         vertex 3.401539e+01 4.877941e+01 1.098078e+02
      endloop
   endfacet
endsolid